<?xml version="1.0" encoding="UTF-8" standalone="no"?>
<svg xmlns:dc="http://purl.org/dc/elements/1.1/" xmlns:cc="http://creativecommons.org/ns#" xmlns:rdf="http://www.w3.org/1999/02/22-rdf-syntax-ns#" xmlns:svg="http://www.w3.org/2000/svg" xmlns="http://www.w3.org/2000/svg" xmlns:xlink="http://www.w3.org/1999/xlink" xmlns:sodipodi="http://sodipodi.sourceforge.net/DTD/sodipodi-0.dtd" xmlns:inkscape="http://www.inkscape.org/namespaces/inkscape" height="660" width="600" version="1.0" id="svg2" sodipodi:version="0.32" inkscape:version="0.47 r22583" sodipodi:docname="Héraldique_Ville_BE_Charleroi_1847.svg" inkscape:output_extension="org.inkscape.output.svg.inkscape" sodipodi:modified="true">
  <metadata id="metadata49">
    <rdf:RDF>
      <cc:Work rdf:about="">
        <dc:format>image/svg+xml</dc:format>
        <dc:type rdf:resource="http://purl.org/dc/dcmitype/StillImage"/>
        <dc:title>Blason ville be Charleroi 1847</dc:title>
        <dc:date>08-11-2009</dc:date>
        <dc:creator>
          <cc:Agent>
            <dc:title>jmh2o</dc:title>
          </cc:Agent>
        </dc:creator>
        <cc:license rdf:resource="http://creativecommons.org/licenses/by/3.0/"/>
        <dc:language>fr</dc:language>
        <dc:subject>
          <rdf:Bag/>
        </dc:subject>
      </cc:Work>
      <cc:License rdf:about="http://creativecommons.org/licenses/by/3.0/">
        <cc:permits rdf:resource="http://creativecommons.org/ns#Reproduction"/>
        <cc:permits rdf:resource="http://creativecommons.org/ns#Distribution"/>
        <cc:requires rdf:resource="http://creativecommons.org/ns#Notice"/>
        <cc:requires rdf:resource="http://creativecommons.org/ns#Attribution"/>
        <cc:permits rdf:resource="http://creativecommons.org/ns#DerivativeWorks"/>
      </cc:License>
    </rdf:RDF>
  </metadata>
  <sodipodi:namedview inkscape:window-height="746" inkscape:window-width="1024" inkscape:pageshadow="2" inkscape:pageopacity="0.0" guidetolerance="10.0" gridtolerance="10.0" objecttolerance="10.0" borderopacity="1.0" bordercolor="#666666" pagecolor="#ffffff" id="base" showgrid="false" height="660px" inkscape:zoom="1" inkscape:cx="282.00772" inkscape:cy="222.73166" inkscape:window-x="22" inkscape:window-y="29" inkscape:current-layer="layer2" inkscape:window-maximized="0"/>
  <desc id="desc4">Blason de la Ville de Charleroi 1847</desc>
  <defs id="defs6">
    <inkscape:perspective sodipodi:type="inkscape:persp3d" inkscape:vp_x="0 : 330 : 1" inkscape:vp_y="0 : 1000 : 0" inkscape:vp_z="600 : 330 : 1" inkscape:persp3d-origin="300 : 220 : 1" id="perspective5025"/>
    <linearGradient id="linearGradient2893">
      <stop style="stop-color:white;stop-opacity:0.3137255;" offset="0" id="stop2895"/>
      <stop id="stop2897" offset="0.19" style="stop-color:white;stop-opacity:0.25098041;"/>
      <stop style="stop-color:#6b6b6b;stop-opacity:0.1254902;" offset="0.60000002" id="stop2901"/>
      <stop style="stop-color:black;stop-opacity:0.1254902;" offset="1" id="stop2899"/>
    </linearGradient>
    <radialGradient inkscape:collect="always" xlink:href="#linearGradient2893" id="radialGradient2883" cx="203.19754" cy="218.01039" fx="203.19754" fy="218.01039" r="300" gradientTransform="matrix(1.360018,0,0,1.355087,-79.5275,-87.64524)" gradientUnits="userSpaceOnUse"/>
    <linearGradient id="linearGradient2955">
      <stop style="stop-color:white;stop-opacity:0;" offset="0" id="stop2965"/>
      <stop style="stop-color:black;stop-opacity:0.64583331;" offset="1" id="stop2959"/>
    </linearGradient>
    <radialGradient inkscape:collect="always" xlink:href="#linearGradient2955" id="radialGradient2961" cx="225.52438" cy="218.90099" fx="225.52438" fy="218.90099" r="300" gradientTransform="matrix(-4.167939e-4,2.182867,-1.884232,-3.599562e-4,615.5972,-289.1214)" gradientUnits="userSpaceOnUse"/>
    <polygon id="star" transform="scale(53,53)" points="0,-1 0.58778525,0.80901699 -0.95105652,-0.30901699 0.95105652,-0.30901699 -0.58778525,0.80901699 0,-1 "/>
    <clipPath id="clip">
      <path d="M 0,-200 L 0,600 L 300,600 L 300,-200 L 0,-200 z " id="path10"/>
    </clipPath>
    <radialGradient inkscape:collect="always" xlink:href="#linearGradient2955" id="radialGradient1911" gradientUnits="userSpaceOnUse" gradientTransform="matrix(-4.167939e-4,2.182867,-1.884232,-3.599562e-4,1395.597,-309.1214)" cx="225.52438" cy="218.90099" fx="225.52438" fy="218.90099" r="300"/>
    <radialGradient inkscape:collect="always" xlink:href="#linearGradient2955" id="radialGradient2928" cx="-483.50824" cy="153.9283" fx="-483.50824" fy="153.9283" r="300.00003" gradientTransform="matrix(0,2.342476,-2.291353,0,562.9126,1323.77)" gradientUnits="userSpaceOnUse"/>
    <radialGradient inkscape:collect="always" xlink:href="#linearGradient2893" id="radialGradient11919" gradientUnits="userSpaceOnUse" gradientTransform="matrix(1.551284,0,0,1.350335,-227.8943,-51.2635)" cx="285.18573" cy="200.44757" fx="285.18573" fy="200.44757" r="300"/>
    <radialGradient r="300" fy="218.90099" fx="225.52438" cy="218.90099" cx="225.52438" gradientTransform="matrix(0,1.386237,-1.323286,-5.741131e-8,-158.0823,-109.5408)" gradientUnits="userSpaceOnUse" id="radialGradient2871" xlink:href="#linearGradient2955" inkscape:collect="always"/>
    <radialGradient r="300" fy="218.90099" fx="225.52438" cy="218.90099" cx="225.52438" gradientTransform="matrix(0,1.748721,-1.593162,-1.049767e-7,551.7876,-191.2898)" gradientUnits="userSpaceOnUse" id="radialGradient2865" xlink:href="#linearGradient2955" inkscape:collect="always"/>
    <radialGradient r="300" fy="218.90099" fx="225.52438" cy="218.90099" cx="225.52438" gradientTransform="matrix(-4.167939e-4,2.182867,-1.884232,-3.599562e-4,615.5972,-289.1214)" gradientUnits="userSpaceOnUse" id="radialGradient5134" xlink:href="#linearGradient2955" inkscape:collect="always"/>
    <clipPath id="clipPath5130">
      <path id="path5132" d="M 0,-200 L 0,600 L 300,600 L 300,-200 L 0,-200 z "/>
    </clipPath>
    <polygon points="0,-1 0.58778525,0.80901699 -0.95105652,-0.30901699 0.95105652,-0.30901699 -0.58778525,0.80901699 0,-1 " transform="scale(53,53)" id="polygon5128"/>
    <radialGradient gradientUnits="userSpaceOnUse" gradientTransform="matrix(-4.167939e-4,2.182867,-1.884232,-3.599562e-4,615.5972,-289.1214)" r="300" fy="218.90099" fx="225.52438" cy="218.90099" cx="225.52438" id="radialGradient5126" xlink:href="#linearGradient2955" inkscape:collect="always"/>
    <linearGradient id="linearGradient5120">
      <stop style="stop-color:#fd0000;stop-opacity:1;" offset="0" id="stop2867"/>
      <stop id="stop2873" offset="0.5" style="stop-color:#e77275;stop-opacity:0.65882355;"/>
      <stop id="stop5124" offset="1" style="stop-color:black;stop-opacity:0.32291666;"/>
    </linearGradient>
    <linearGradient id="linearGradient2885">
      <stop style="stop-color:white;stop-opacity:1;" offset="0" id="stop2887"/>
      <stop id="stop2891" offset="0.22857143" style="stop-color:white;stop-opacity:1;"/>
      <stop style="stop-color:black;stop-opacity:1;" offset="1" id="stop2889"/>
    </linearGradient>
    <linearGradient id="linearGradient5106">
      <stop id="stop5108" offset="0" style="stop-color:white;stop-opacity:0.3137255;"/>
      <stop style="stop-color:white;stop-opacity:0.25098041;" offset="0.19" id="stop5110"/>
      <stop id="stop5112" offset="0.60000002" style="stop-color:#6b6b6b;stop-opacity:0.1254902;"/>
      <stop id="stop5114" offset="1" style="stop-color:black;stop-opacity:0.1254902;"/>
    </linearGradient>
    <inkscape:perspective id="perspective5103" inkscape:persp3d-origin="300 : 220 : 1" inkscape:vp_z="600 : 330 : 1" inkscape:vp_y="0 : 1000 : 0" inkscape:vp_x="0 : 330 : 1" sodipodi:type="inkscape:persp3d"/>
    <inkscape:perspective sodipodi:type="inkscape:persp3d" inkscape:vp_x="0 : 407.14844 : 1" inkscape:vp_y="0 : 1000 : 0" inkscape:vp_z="731.71094 : 407.14844 : 1" inkscape:persp3d-origin="365.85547 : 271.43229 : 1" id="perspective4714"/>
    <linearGradient id="linearGradient4716">
      <stop id="stop4718" style="stop-color:#ffffff;stop-opacity:1" offset="0"/>
      <stop id="stop4720" style="stop-color:#ffffff;stop-opacity:0" offset="1"/>
    </linearGradient>
    <linearGradient id="linearGradient4722">
      <stop id="stop4724" style="stop-color:#000000;stop-opacity:1" offset="0"/>
      <stop id="stop4726" style="stop-color:#000000;stop-opacity:0" offset="1"/>
    </linearGradient>
    <radialGradient cx="504.61539" cy="564.13458" r="365.91113" fx="504.61539" fy="564.13458" id="radialGradient4728" xlink:href="#linearGradient2823" gradientUnits="userSpaceOnUse" gradientTransform="matrix(1.23795,0.50518,-0.896925,2.19793,639.53331,-598.59819)"/>
    <radialGradient cx="254.48274" cy="265.4794" r="365.91113" fx="254.48274" fy="265.4794" id="radialGradient4730" xlink:href="#linearGradient5498" gradientUnits="userSpaceOnUse" gradientTransform="matrix(1.45771,0,0,1.49337,-729.303,-232.81138)"/>
    <radialGradient cx="504.61539" cy="564.13458" r="365.91113" fx="504.61539" fy="564.13458" id="radialGradient4732" xlink:href="#linearGradient2823" gradientUnits="userSpaceOnUse" gradientTransform="matrix(1.23795,0.50518,-0.896925,2.19793,584.95635,-748.94274)"/>
    <radialGradient cx="254.48274" cy="265.4794" r="365.91113" fx="254.48274" fy="265.4794" id="radialGradient4734" xlink:href="#linearGradient5498" gradientUnits="userSpaceOnUse" gradientTransform="matrix(1.45771,0,0,1.49337,-783.87996,-383.15593)"/>
    <radialGradient cx="504.61539" cy="564.13458" r="365.91113" fx="504.61539" fy="564.13458" id="radialGradient4736" xlink:href="#linearGradient2823" gradientUnits="userSpaceOnUse" gradientTransform="matrix(1.23795,0.50518,-0.896925,2.19793,388.5628,-914.38155)"/>
    <radialGradient cx="254.48274" cy="265.4794" r="365.91113" fx="254.48274" fy="265.4794" id="radialGradient4738" xlink:href="#linearGradient5498" gradientUnits="userSpaceOnUse" gradientTransform="matrix(1.45771,0,0,1.49337,-291.00008,-152.80961)"/>
    <radialGradient cx="254.48274" cy="265.4794" r="365.91113" fx="254.48274" fy="265.4794" id="radialGradient4740" xlink:href="#linearGradient5498" gradientUnits="userSpaceOnUse" gradientTransform="matrix(1.45771,0,0,1.49337,-113.8282,-145.8018)"/>
    <radialGradient cx="504.61539" cy="564.13458" r="365.91113" fx="504.61539" fy="564.13458" id="radialGradient4742" xlink:href="#linearGradient2823" gradientUnits="userSpaceOnUse" gradientTransform="matrix(1.23795,0.50518,-0.896925,2.19793,388.5628,-914.38155)"/>
    <radialGradient cx="254.48274" cy="265.4794" r="365.91113" fx="254.48274" fy="265.4794" id="radialGradient4744" xlink:href="#linearGradient5498" gradientUnits="userSpaceOnUse" gradientTransform="matrix(1.45771,0,0,1.49337,-113.8282,-145.8018)"/>
    <radialGradient inkscape:collect="always" xlink:href="#linearGradient2823" id="radialGradient4746" gradientUnits="userSpaceOnUse" gradientTransform="matrix(1.23795,0.50518,-0.896925,2.19793,388.5628,-914.38155)" cx="504.61539" cy="564.13458" fx="504.61539" fy="564.13458" r="365.91113"/>
    <radialGradient inkscape:collect="always" xlink:href="#linearGradient5498" id="radialGradient4748" gradientUnits="userSpaceOnUse" gradientTransform="matrix(1.45771,0,0,1.49337,-113.8282,-145.8018)" cx="254.48274" cy="265.4794" fx="254.48274" fy="265.4794" r="365.91113"/>
    <inkscape:perspective sodipodi:type="inkscape:persp3d" inkscape:vp_x="0 : 407.14844 : 1" inkscape:vp_y="0 : 1000 : 0" inkscape:vp_z="731.71094 : 407.14844 : 1" inkscape:persp3d-origin="365.85547 : 271.43229 : 1" id="perspective4270"/>
    <linearGradient id="linearGradient4272">
      <stop id="stop4274" style="stop-color:#ffffff;stop-opacity:1" offset="0"/>
      <stop id="stop4276" style="stop-color:#ffffff;stop-opacity:0" offset="1"/>
    </linearGradient>
    <linearGradient id="linearGradient4278">
      <stop id="stop4280" style="stop-color:#000000;stop-opacity:1" offset="0"/>
      <stop id="stop4282" style="stop-color:#000000;stop-opacity:0" offset="1"/>
    </linearGradient>
    <radialGradient cx="504.61539" cy="564.13458" r="365.91113" fx="504.61539" fy="564.13458" id="radialGradient4284" xlink:href="#linearGradient2823" gradientUnits="userSpaceOnUse" gradientTransform="matrix(1.23795,0.50518,-0.896925,2.19793,639.53331,-598.59819)"/>
    <radialGradient cx="254.48274" cy="265.4794" r="365.91113" fx="254.48274" fy="265.4794" id="radialGradient4286" xlink:href="#linearGradient5498" gradientUnits="userSpaceOnUse" gradientTransform="matrix(1.45771,0,0,1.49337,-729.303,-232.81138)"/>
    <radialGradient cx="504.61539" cy="564.13458" r="365.91113" fx="504.61539" fy="564.13458" id="radialGradient4288" xlink:href="#linearGradient2823" gradientUnits="userSpaceOnUse" gradientTransform="matrix(1.23795,0.50518,-0.896925,2.19793,584.95635,-748.94274)"/>
    <radialGradient cx="254.48274" cy="265.4794" r="365.91113" fx="254.48274" fy="265.4794" id="radialGradient4290" xlink:href="#linearGradient5498" gradientUnits="userSpaceOnUse" gradientTransform="matrix(1.45771,0,0,1.49337,-783.87996,-383.15593)"/>
    <radialGradient cx="504.61539" cy="564.13458" r="365.91113" fx="504.61539" fy="564.13458" id="radialGradient4292" xlink:href="#linearGradient2823" gradientUnits="userSpaceOnUse" gradientTransform="matrix(1.23795,0.50518,-0.896925,2.19793,388.5628,-914.38155)"/>
    <radialGradient cx="254.48274" cy="265.4794" r="365.91113" fx="254.48274" fy="265.4794" id="radialGradient4294" xlink:href="#linearGradient5498" gradientUnits="userSpaceOnUse" gradientTransform="matrix(1.45771,0,0,1.49337,-291.00008,-152.80961)"/>
    <radialGradient cx="254.48274" cy="265.4794" r="365.91113" fx="254.48274" fy="265.4794" id="radialGradient4296" xlink:href="#linearGradient5498" gradientUnits="userSpaceOnUse" gradientTransform="matrix(1.45771,0,0,1.49337,-113.8282,-145.8018)"/>
    <radialGradient cx="504.61539" cy="564.13458" r="365.91113" fx="504.61539" fy="564.13458" id="radialGradient4298" xlink:href="#linearGradient2823" gradientUnits="userSpaceOnUse" gradientTransform="matrix(1.23795,0.50518,-0.896925,2.19793,388.5628,-914.38155)"/>
    <radialGradient cx="254.48274" cy="265.4794" r="365.91113" fx="254.48274" fy="265.4794" id="radialGradient4300" xlink:href="#linearGradient5498" gradientUnits="userSpaceOnUse" gradientTransform="matrix(1.45771,0,0,1.49337,-113.8282,-145.8018)"/>
    <radialGradient inkscape:collect="always" xlink:href="#linearGradient2823" id="radialGradient4302" gradientUnits="userSpaceOnUse" gradientTransform="matrix(1.23795,0.50518,-0.896925,2.19793,388.5628,-914.38155)" cx="504.61539" cy="564.13458" fx="504.61539" fy="564.13458" r="365.91113"/>
    <radialGradient inkscape:collect="always" xlink:href="#linearGradient5498" id="radialGradient4304" gradientUnits="userSpaceOnUse" gradientTransform="matrix(1.45771,0,0,1.49337,-113.8282,-145.8018)" cx="254.48274" cy="265.4794" fx="254.48274" fy="265.4794" r="365.91113"/>
    <inkscape:perspective sodipodi:type="inkscape:persp3d" inkscape:vp_x="0 : 366.79691 : 1" inkscape:vp_y="0 : 1000 : 0" inkscape:vp_z="730.05841 : 366.79691 : 1" inkscape:persp3d-origin="365.02921 : 244.53127 : 1" id="perspective3047"/>
    <linearGradient id="linearGradient2495">
      <stop id="stop2497" style="stop-color:#ffffff;stop-opacity:1" offset="0"/>
      <stop id="stop2527" style="stop-color:#dcdcdc;stop-opacity:1" offset="0.34999999"/>
      <stop id="stop2499" style="stop-color:#828282;stop-opacity:1" offset="1"/>
    </linearGradient>
    <linearGradient id="linearGradient2461">
      <stop id="stop2463" style="stop-color:#ffffff;stop-opacity:1" offset="0"/>
      <stop id="stop2471" style="stop-color:#7f7f7f;stop-opacity:1" offset="0.55000001"/>
      <stop id="stop2465" style="stop-color:#000000;stop-opacity:1" offset="1"/>
    </linearGradient>
    <linearGradient id="linearGradient2291">
      <stop id="stop2301" style="stop-color:#ffffff;stop-opacity:1" offset="0"/>
      <stop id="stop2305" style="stop-color:#ffc000;stop-opacity:1" offset="0.5"/>
      <stop id="stop2295" style="stop-color:#ffffff;stop-opacity:1" offset="1"/>
    </linearGradient>
    <linearGradient id="linearGradient2210">
      <stop id="stop2212" style="stop-color:#15caff;stop-opacity:1" offset="0"/>
      <stop id="stop2249" style="stop-color:#0065bf;stop-opacity:0.74901962" offset="1"/>
      <stop id="stop2251" style="stop-color:#0052ff;stop-opacity:0.62352943" offset="1"/>
      <stop id="stop2259" style="stop-color:#0374f2;stop-opacity:0.59215689" offset="1"/>
      <stop id="stop2253" style="stop-color:#07daff;stop-opacity:0.56078434" offset="1"/>
      <stop id="stop2255" style="stop-color:#0b8cd9;stop-opacity:0.52941173" offset="1"/>
      <stop id="stop2257" style="stop-color:#0d86d3;stop-opacity:0.51372552" offset="1"/>
      <stop id="stop2218" style="stop-color:#0f81cd;stop-opacity:0.49803922" offset="1"/>
      <stop id="stop2214" style="stop-color:#0f76b1;stop-opacity:0" offset="1"/>
    </linearGradient>
    <linearGradient x1="249.44128" y1="425.14316" x2="483.17654" y2="425.14316" id="linearGradient18167" xlink:href="#linearGradient2291" gradientUnits="userSpaceOnUse" gradientTransform="matrix(1.063033,0,0,1.063033,-26.480136,-169.57238)" spreadMethod="reflect"/>
    <radialGradient cx="334.17886" cy="385.5217" r="106.82813" fx="334.17886" fy="385.5217" id="radialGradient18170" xlink:href="#linearGradient2495" gradientUnits="userSpaceOnUse" gradientTransform="matrix(1.063033,0,0,0.9123438,-26.480136,-98.850513)"/>
    <linearGradient x1="350.13812" y1="575.00568" x2="395.10675" y2="575.00568" id="linearGradient18177" xlink:href="#linearGradient2461" gradientUnits="userSpaceOnUse" gradientTransform="matrix(0,-1.063033,1.063033,0,-346.02265,658.51832)"/>
    <linearGradient x1="350.13812" y1="588.20483" x2="395.10675" y2="588.20483" id="linearGradient18192" xlink:href="#linearGradient2461" gradientUnits="userSpaceOnUse" gradientTransform="matrix(0,-1.063033,-1.063033,0,1084.0396,658.51832)"/>
    <radialGradient cx="466.75189" cy="-41.8428" r="4.5319548" fx="466.75189" fy="-41.8428" id="radialGradient5051" xlink:href="#linearGradient2210" gradientUnits="userSpaceOnUse" gradientTransform="matrix(1.3863744,0,0,1.4854012,-117.46853,87.928228)"/>
    <radialGradient gradientTransform="matrix(1.45771,0,0,1.49337,-113.8282,-145.8018)" gradientUnits="userSpaceOnUse" xlink:href="#linearGradient5498" id="radialGradient9477" fy="265.4794" fx="254.48274" r="365.91113" cy="265.4794" cx="254.48274"/>
    <radialGradient gradientTransform="matrix(1.23795,0.50518,-0.896925,2.19793,388.5628,-914.38155)" gradientUnits="userSpaceOnUse" xlink:href="#linearGradient2823" id="radialGradient9473" fy="564.13458" fx="504.61539" r="365.91113" cy="564.13458" cx="504.61539"/>
    <radialGradient gradientTransform="matrix(1.45771,0,0,1.49337,-113.8282,-145.8018)" gradientUnits="userSpaceOnUse" xlink:href="#linearGradient5498" id="radialGradient11987" fy="265.4794" fx="254.48274" r="365.91113" cy="265.4794" cx="254.48274"/>
    <radialGradient gradientTransform="matrix(1.45771,0,0,1.49337,-291.00008,-152.80961)" gradientUnits="userSpaceOnUse" xlink:href="#linearGradient5498" id="radialGradient11474" fy="265.4794" fx="254.48274" r="365.91113" cy="265.4794" cx="254.48274"/>
    <radialGradient gradientTransform="matrix(1.23795,0.50518,-0.896925,2.19793,388.5628,-914.38155)" gradientUnits="userSpaceOnUse" xlink:href="#linearGradient2823" id="radialGradient11472" fy="564.13458" fx="504.61539" r="365.91113" cy="564.13458" cx="504.61539"/>
    <radialGradient gradientTransform="matrix(1.45771,0,0,1.49337,-783.87996,-383.15593)" gradientUnits="userSpaceOnUse" xlink:href="#linearGradient5498" id="radialGradient11466" fy="265.4794" fx="254.48274" r="365.91113" cy="265.4794" cx="254.48274"/>
    <radialGradient gradientTransform="matrix(1.23795,0.50518,-0.896925,2.19793,584.95635,-748.94274)" gradientUnits="userSpaceOnUse" xlink:href="#linearGradient2823" id="radialGradient11464" fy="564.13458" fx="504.61539" r="365.91113" cy="564.13458" cx="504.61539"/>
    <radialGradient gradientTransform="matrix(1.45771,0,0,1.49337,-729.303,-232.81138)" gradientUnits="userSpaceOnUse" xlink:href="#linearGradient5498" id="radialGradient5504" fy="265.4794" fx="254.48274" r="365.91113" cy="265.4794" cx="254.48274"/>
    <radialGradient gradientTransform="matrix(1.23795,0.50518,-0.896925,2.19793,639.53331,-598.59819)" gradientUnits="userSpaceOnUse" xlink:href="#linearGradient2823" id="radialGradient2829" fy="564.13458" fx="504.61539" r="365.91113" cy="564.13458" cx="504.61539"/>
    <linearGradient id="linearGradient2823">
      <stop offset="0" style="stop-color:#000000;stop-opacity:1" id="stop2825"/>
      <stop offset="1" style="stop-color:#000000;stop-opacity:0" id="stop2827"/>
    </linearGradient>
    <linearGradient id="linearGradient5498">
      <stop offset="0" style="stop-color:#ffffff;stop-opacity:1" id="stop5500"/>
      <stop offset="1" style="stop-color:#ffffff;stop-opacity:0" id="stop5502"/>
    </linearGradient>
    <inkscape:perspective id="perspective10899" inkscape:persp3d-origin="365.85547 : 271.43229 : 1" inkscape:vp_z="731.71094 : 407.14844 : 1" inkscape:vp_y="0 : 1000 : 0" inkscape:vp_x="0 : 407.14844 : 1" sodipodi:type="inkscape:persp3d"/>
    <inkscape:perspective id="perspective5642" inkscape:persp3d-origin="355.59589 : 306.40403 : 1" inkscape:vp_z="711.19177 : 459.60605 : 1" inkscape:vp_y="0 : 1000 : 0" inkscape:vp_x="0 : 459.60605 : 1" sodipodi:type="inkscape:persp3d"/>
  </defs>
  <g inkscape:groupmode="layer" id="layer1" inkscape:label="Fond écu" sodipodi:insensitive="true">
    <path id="path2014" style="fill:#000000;fill-opacity:1;fill-rule:nonzero;stroke:none;stroke-width:5;stroke-linecap:round;stroke-linejoin:round;stroke-miterlimit:4;stroke-dashoffset:0;stroke-opacity:1" d="M 299.99993,658.49936 C 299.99993,619.9953 331.2031,588.7457 369.64989,588.7457 C 408.09669,588.7457 490.40303,588.7457 528.84981,588.7457 C 567.29661,588.7457 598.49989,557.49612 598.49989,518.99215 L 598.49989,1.4996597 L 1.5000104,1.4996796 L 1.5000005,518.99215 C 1.5000005,557.49612 32.703199,588.7457 71.149994,588.7457 C 109.5968,588.7457 191.90315,588.7457 230.34995,588.7457 C 268.79674,588.7457 299.99993,619.9953 299.99993,658.49936 z" sodipodi:nodetypes="cssccccssc"/>
    <g style="display:inline" inkscape:label="chef" id="layer5" transform="translate(-8.0724239e-2,-0.818401)">
      <rect y="2.1139324" x="1.5319287" height="179.00894" width="596.46588" id="rect2230" style="opacity:1;fill:#ffffff;fill-opacity:1;fill-rule:nonzero;stroke:#000000;stroke-width:2.90240884;stroke-miterlimit:4;stroke-dasharray:none;stroke-opacity:1"/>
    </g>
  </g>
  <g inkscape:groupmode="layer" id="layer2" inkscape:label="Meubles" sodipodi:insensitive="true">
    <path d="" id="path16959" style="fill:#000000;fill-opacity:1;fill-rule:evenodd;stroke:none"/>
    <path d="" id="path6071" style="fill:#000000;fill-opacity:1;fill-rule:evenodd;stroke:none"/>
    <g id="g3008">
      <path style="fill:#fcef3c;fill-opacity:1;stroke:#000000;stroke-width:1.92212415;stroke-miterlimit:4;stroke-opacity:1;stroke-dasharray:none" id="path3715" d="m 270.86715,256.43722 0.90085,-5.88687 c -2.40228,-0.16583 -5.10488,-0.16583 -7.90754,-0.0829 -0.10011,-0.0829 -0.10011,-0.0829 -0.10011,-0.0829 -0.1001,0 -0.1001,0 -0.1001,0 l 0,0.0829 0,0.0829 3.40324,6.21854 1.40135,1.74119 0,0 2.40231,-2.07286 z"/>
      <path style="fill:#fcef3c;fill-opacity:1;stroke:#000000;stroke-width:1.92212415;stroke-miterlimit:4;stroke-opacity:1;stroke-dasharray:none" id="path3733" d="m 166.89449,359.91068 c 0.34265,1.48715 -0.0176,2.90295 -0.97822,4.32861 -2.35697,1.61365 -5.3285,2.74066 -8.81452,3.37851 -1.37273,1.01778 -1.63991,2.18407 -0.80872,3.24769 2.70666,0.12137 4.82231,0.58416 6.64719,1.38348 l 4.08175,-0.81351 -4.08175,0.81351 c 0.50979,0.32335 1.12201,0.72794 1.63415,1.13418 2.07923,2.70261 3.24367,4.92266 3.39795,6.82757 2.00144,-0.0329 3.99347,-0.39738 5.87363,-1.17472 3.84857,-1.97158 7.29688,-3.93575 9.93519,-6.21833 -3.54025,-1.26872 -6.50599,-3.45913 -9.095,-6.48508 -0.36622,-2.31611 -1.63308,-4.61739 -3.80057,-6.90304 -1.61999,-0.636 -2.91622,-0.44882 -3.99108,0.48113 z"/>
      <path sodipodi:nodetypes="ccccsccccccccscsccsccsccccccccccccccccccccccccsccccccccccccccccccccccccccccccccccccccccccccccccsccccccscccccccccccccccccccccccsccccccccsccccccccccccccccccccccccscccccccccccccscccccsccccccccscccccccccccccccccssccsscccsccsccsccscccccccccccccccccccsccccccccccscccsccscscccccccscccccccscsccccscccccccsccccccsssccccccccsccccccccccccccscsccccccccccccccssccccccsccscccccccccssccccccccccsccccccccccccccccccccccccccccsccccccsccccccccccsccccccc" style="fill:#fcef3c;fill-opacity:1;stroke:#000000;stroke-width:1.92212415;stroke-miterlimit:4;stroke-opacity:1;stroke-dasharray:none" id="path3707" d="m 459.78147,215.00141 c -0.10116,-0.0829 -0.10116,-0.16583 -0.10116,-0.16583 -0.30022,-0.41458 -0.60053,-0.66332 -0.89979,-0.99497 -0.10114,-0.16583 -0.2002,-0.24873 -0.2002,-0.33166 -0.40041,-0.33166 -0.70072,-0.58039 -1.10208,-0.91205 -1.30124,-1.07788 -2.90174,-1.98992 -4.80457,-2.65323 -0.10012,-0.0829 -0.30031,-0.0829 -0.39936,-0.16583 -1.60251,-0.49748 -3.20311,-0.99496 -5.10594,-1.32661 -3.50331,-0.33167 -6.80644,0.41455 -9.80933,2.15575 -3.0029,2.4045 -3.80363,4.64316 -2.40227,6.55017 0,0.0829 0,0.16584 0.10106,0.24875 0.10008,-0.0829 0.10008,-0.24875 0.20019,-0.33166 1.2002,-2.90198 4.40321,-4.47734 9.70828,-4.89191 2.30323,0.0829 4.20405,0.41457 5.60635,0.99496 1.20115,0.49749 2.10197,1.16081 2.80269,1.90702 0.20021,0.24875 0.30032,0.49749 0.50042,0.74622 0.20021,0.24875 0.30032,0.66332 0.50051,1.07788 0.70064,4.89193 -0.70061,8.62304 -4.20404,11.27628 -4.50425,3.39947 -10.00954,4.47735 -16.61586,3.15072 -6.60727,-1.32662 -11.81122,-0.74623 -15.71496,1.8241 -0.10011,0 -0.10011,0 -0.10011,0 -3.00288,2.4045 -5.30604,5.22358 -6.80748,8.54011 1.50144,-3.31653 3.8046,-6.13561 6.80748,-8.54011 l 0,-0.0829 c -1.30219,-5.47231 -4.8056,-9.53508 -10.3108,-12.35414 -3.80364,-1.07789 -8.00766,-1.49245 -12.71117,-0.99498 l 0,0 c -6.6073,0.82915 -10.61114,3.48239 -11.91131,8.04264 -0.90093,3.23364 0.2001,6.0527 3.4032,8.29138 1.90081,1.07788 4.10395,1.2437 6.70538,0.24873 -4.50425,-1.16079 -6.00572,-3.23363 -4.40319,-6.30144 1.20114,-1.24369 3.30312,-1.98992 6.40515,-1.98992 2.90272,0.0829 5.20491,1.16078 6.90655,3.15071 2.00187,3.73111 2.6025,6.88184 1.70166,9.70092 -0.30031,1.07787 -0.90092,2.07283 -1.70166,2.98489 -8.60821,10.03256 -13.71308,21.06007 -15.41472,33.16548 -1.00094,9.53508 -1.10104,16.49984 -0.60054,20.89427 0.10011,1.57536 0.40033,3.15071 0.60054,4.89191 0.50049,3.15072 1.20112,6.71602 2.00196,10.53003 1.3022,5.88689 4.70444,14.26117 10.31081,25.37245 2.70153,5.80396 6.20496,10.19838 10.70921,13.10037 1.40134,0.82913 2.50238,1.57452 3.70352,2.40367 3.60449,2.65325 5.70551,5.47314 6.20593,8.37511 -1.60147,-3.15072 -4.50426,-5.05856 -8.7083,-5.80396 -0.70063,-0.0837 -1.40029,-0.24874 -2.10197,-0.24874 -3.50333,-0.41457 -7.00675,-0.0837 -10.40997,0.82914 -2.20208,0.165 -4.30415,0.165 -6.20591,-0.16582 -3.80364,-0.66332 -7.00673,-2.32158 -9.50913,-4.89191 -2.50239,-3.39948 -1.40028,-6.96394 3.20312,-10.61296 -5.00478,0.74621 -8.30799,2.90196 -10.20977,6.55017 -1.00093,3.39946 -0.89987,6.38353 0.50053,9.03677 3.50331,4.14569 7.90747,6.13563 13.21256,5.88771 0.4004,0 0.70072,0 1.10207,0 -0.4004,0.165 -0.70071,0.41457 -1.10207,0.57957 -3.50332,1.90784 -7.70736,3.31654 -12.61206,4.22944 3.40227,1.90699 7.60727,1.98909 12.61206,0.24874 -7.10675,4.39442 -9.50905,9.36925 -7.30696,15.00737 3.30311,5.9698 8.6082,8.87177 16.11537,8.4572 l 0.10114,0 c 0.10002,-0.0829 0.2001,-0.0829 0.39937,-0.0829 0.70062,-0.0837 1.3022,-0.16583 2.00186,-0.24873 6.00571,-1.90785 8.5081,-4.39525 7.70737,-7.46224 -2.30219,2.73615 -5.70541,3.89611 -9.9085,3.56528 -5.00475,-1.32745 -7.50714,-4.14568 -7.40703,-8.70594 0.60061,-2.73615 2.00196,-4.809 4.10394,-6.30227 2.50238,-1.74119 6.10686,-2.73615 10.71026,-2.73615 11.21068,0.91288 18.21733,4.14568 20.91991,9.7009 2.5024,5.88687 2.90176,11.27628 1.10105,16.41694 -3.10292,6.88183 -9.50902,12.10622 -19.21836,15.58776 -6.00571,1.74203 -11.71015,2.4045 -17.01619,2.4045 -5.30508,-0.16583 -10.30987,-1.16079 -15.01432,-3.0678 -5.80561,-3.23281 -11.71024,-6.21853 -17.3166,-9.03679 0,-0.0837 -0.20019,-0.0837 -0.20019,-0.0837 -7.20581,-4.14571 -13.2116,-9.8659 -18.01714,-17.16314 -2.60249,-4.1457 -4.50434,-8.45638 -5.30507,-12.68579 0,-0.0829 0,-0.0829 0,-0.16584 -0.70074,-5.22358 -1.90082,-10.44715 -3.80364,-15.66987 l 0.30031,-0.24873 c 3.0028,2.23784 6.0057,3.31654 8.90849,3.23279 -4.80464,-3.64738 -8.20786,-7.87681 -10.11068,-12.60289 -0.10011,-0.41456 -0.10011,-0.74539 -0.10011,-1.2437 l -0.49947,0.0829 c -2.60248,1.15995 -5.70547,1.65827 -9.2088,1.49245 -4.00383,-0.33166 -7.20686,-1.40954 -9.90844,-3.31655 -2.80366,-1.90702 -4.90469,-4.56026 -6.30703,-8.04263 -1.8017,0.99496 -3.60343,1.74201 -5.40414,2.32158 0,0.16584 -0.10012,0.24956 -0.20021,0.41457 -3.70354,5.05857 -8.70832,8.78969 -15.21451,11.19336 -1.60153,0.58039 -3.30317,1.0787 -5.00477,1.49327 1.20111,-0.99497 2.10199,-2.07284 2.90276,-3.15156 1.70159,-2.4874 2.20211,-5.13982 1.60153,-7.79306 -2.70258,0.5804 -5.00478,1.49245 -7.00669,2.81824 -0.80077,0.49832 -1.50145,1.16079 -2.20211,1.82412 -4.00381,3.56528 -4.00381,7.21347 -0.20019,11.11042 -2.90277,0.33084 -5.00478,-0.24873 -6.50621,-1.82409 -0.50048,-0.5804 -0.90084,-1.1608 -1.20115,-1.8241 -0.10009,-0.24876 -0.10009,-0.33083 -0.2002,-0.4975 -1.30122,-3.40028 -0.1001,-6.79891 3.60344,-10.19837 0.70067,-0.66415 1.40135,-1.24371 2.2021,-1.82412 -6.4061,1.9891 -10.10962,5.22358 -10.91042,9.86592 0.5005,2.23866 1.60155,4.39524 3.30318,6.30226 0,0.0829 0.20019,0.24875 0.30027,0.33084 0.60058,0.66414 1.40133,1.40953 2.20211,2.07285 0.1001,0.0837 0.1001,0.0837 0.1001,0.0837 -5.30506,-0.99497 -9.60918,-3.40029 -12.81223,-7.46224 -1.70162,-2.57115 -1.90182,-5.80395 -0.50046,-9.86673 0,0 0,0 0.10007,-0.0829 0.30029,-1.16079 0.90087,-2.32158 1.50144,-3.6482 l -7.70735,4.47734 c -3.20306,1.40953 -7.10679,2.15575 -11.6111,2.07285 l -0.10009,0 c -2.40231,0.24873 -4.70449,0.7454 -6.8065,1.40954 -3.90372,1.15995 -7.20689,3.15071 -10.00955,5.88686 -2.102,-1.32662 -2.60248,-3.31655 -1.40134,-5.72104 0.60057,-0.7454 1.20116,-1.49246 1.90182,-2.23784 l -3.70353,0.82913 c -8.50814,6.26604 -17.01627,9.52055 -25.52438,20.72843 -1.20115,0.91207 -1.40134,1.90702 -0.70067,2.65241 -4.20402,0.24957 -7.50717,1.16081 -9.80937,3.15154 -3.60906,3.56217 -8.31177,6.25175 -13.21261,8.70595 -5.2949,0.48066 -15.31687,-6.76518 -21.02007,2.15495 0.20019,0.66331 0.80077,1.07786 2.102,1.32661 5.20948,0.33637 7.82701,3.71612 3.80363,6.55102 0.90087,3.23363 3.50336,5.22356 7.70736,6.13561 2.75577,-1.72757 5.01426,-7.61502 8.70832,-1.49328 l 4.7045,-3.64737 c 1.80171,-1.74202 2.40229,-3.81487 1.90181,-6.21855 0.50048,2.40368 -0.1001,4.47653 -1.90181,6.21855 l -4.7045,3.64737 c -2.00191,2.32242 -3.20305,4.644 -3.70353,6.96476 l 2.00191,3.31654 c 3.07848,-4.85267 10.08768,-1.90836 11.21071,2.32158 2.102,1.32746 5.40515,1.57538 9.80935,0.82916 -2.102,-1.65829 -3.40324,-3.48238 -4.00382,-5.55523 -0.10009,-0.0829 -0.10009,-0.0829 -0.10009,-0.0829 -0.2002,-0.91205 -0.40038,-1.98993 -0.40038,-3.0678 0,1.07787 0.20018,2.15657 0.40038,3.0678 l 1.00095,-0.16583 c 3.00287,-1.74118 9.01183,0.11304 12.41507,0.94218 4.20402,-3.5653 3.90051,-9.4823 4.50108,-12.88092 0.1001,0 0.1001,0 0.1001,-0.0837 2.10201,5.14066 6.90659,6.38437 14.71406,3.64819 -5.90565,0.49751 -7.10679,-1.24369 -3.30317,-5.05855 0.10011,0.0837 0.20019,0.0837 0.4004,0.0837 3.50334,-1.24371 5.40516,-2.90197 5.50524,-4.97482 0,-0.24873 0,-0.49831 0,-0.74622 0.1001,0.16585 0.30029,0.41458 0.30029,0.5804 0,0 0,0 0.10011,0.0829 1.50142,2.73698 2.90276,3.73111 4.00381,3.23364 0.70067,-4.80899 2.40229,-8.29138 5.00478,-10.28131 -0.20019,5.72105 1.60153,8.78969 5.60533,9.37009 0.6006,-3.31655 1.40136,-6.13563 2.40231,-8.54095 0.10009,-0.0829 0.10009,-0.24874 0.20019,-0.33083 1.40133,-3.15072 3.30316,-5.30649 5.60535,-6.79892 0.20019,2.65324 -0.70066,5.38939 -2.80266,8.04263 4.0038,-1.32745 7.20686,-3.31655 9.70926,-6.05272 1.90181,-2.57114 2.70257,-5.38937 2.60249,-8.45717 4.10391,6.38434 3.90373,12.3533 -0.50049,17.90934 l 12.21165,-8.04262 c 1.20117,-0.74541 2.50238,-1.49244 3.80366,-2.15577 5.30503,-2.81907 11.11058,-4.3115 17.41662,-4.56025 -6.30604,0.24875 -12.11159,1.74118 -17.41662,4.56025 -1.30128,0.66333 -2.60249,1.40955 -3.80366,2.15577 0.90086,4.80982 0,8.29137 -2.60247,10.69586 4.5043,0.41457 7.90754,-1.90701 10.00956,-6.7989 0.20017,-0.41458 0.30029,-0.74542 0.50048,-1.15997 -1.10108,4.39441 0.10008,7.46223 3.60343,9.36923 7.30697,2.81826 14.91422,4.72611 22.7217,5.72023 1.10104,0.24957 2.20208,0.4983 3.20304,0.82916 0.80078,0.24955 1.50144,0.58037 2.30221,0.91285 0.89985,0.24875 1.70063,0.66333 2.50238,1.15997 3.70254,1.98993 6.7054,4.72608 9.30888,8.37512 0.8999,-1.98993 0.80076,-4.47734 -0.30029,-7.37932 -1.50143,-1.9891 -3.30414,-3.64739 -5.30605,-5.14066 -1.30124,-0.82913 -2.60248,-1.57452 -3.90273,-2.15575 1.30124,0.5804 2.60248,1.32662 3.90273,2.15575 2.00191,1.49327 3.80462,3.15156 5.30605,5.14066 1.10105,2.90198 1.20019,5.38939 0.30029,7.37932 -0.10105,0 -0.20019,0.0829 -0.10105,0.16583 -1.60156,2.40367 -2.50243,4.89108 -2.8027,7.71098 -0.10012,0.41455 -0.10012,0.91203 -0.10012,1.32662 0,1.74202 0.10012,3.56528 0.39939,5.38939 1.40135,2.57116 2.00196,4.8919 1.70164,7.04766 -0.30029,1.98994 -1.30125,3.89694 -3.00287,5.55523 -0.20019,0.16583 -0.30028,0.33165 -0.60059,0.58039 -5.70545,4.06194 -9.90944,8.12555 -12.91232,12.18832 -3.00286,4.64317 -4.80458,9.36925 -5.50526,14.0116 -0.40038,4.72607 -0.60056,8.78968 -0.70067,12.02248 0.10011,1.74203 -0.60055,3.23365 -2.2021,4.47734 -1.60151,1.15998 -3.90372,2.15577 -7.10678,2.81824 -2.80268,0.58039 -5.40516,0.58039 -7.60727,0 -2.50238,-0.74539 -3.54235,-2.43021 -4.54331,-4.25513 0.54535,-5.93351 1.27491,-6.29937 4.46532,-9.3203 -9.0825,1.75364 -14.08883,5.13729 -12.30331,14.6998 7.22761,17.03673 24.77363,13.54999 34.32432,0.55967 2.52618,-3.37552 3.4532,-4.94253 4.82495,-7.43324 -2.52179,4.7968 -5.81521,9.91937 -6.74885,15.28349 0,0 0,0 0,0.0837 2.5024,-2.48741 5.10487,-4.22942 7.60726,-5.14065 1.40135,5.63813 1.60253,10.11547 0.60158,13.26621 -1.40134,3.97986 -3.10397,6.96475 -5.10588,8.62301 0.90086,0.165 1.80172,0 2.70257,-0.16581 l 0,0 c 2.6025,-0.66331 5.40518,-2.57116 8.20785,-5.88772 2.60249,-2.73613 3.80362,-6.13477 3.70354,-10.03256 -0.10112,-2.15573 -0.5005,-4.06276 -1.10207,-5.5552 -0.20019,-0.41459 -0.39938,-0.82914 -0.60056,-1.24371 -0.40037,-0.58041 -0.80076,-1.15998 -1.30124,-1.57453 0.50048,0.41455 0.89986,0.99412 1.30124,1.57453 0.30029,0.41457 0.60056,0.74622 1.00096,1.16079 3.20307,3.23281 7.00669,4.89106 11.31076,4.80899 0.20021,0 0.4004,0 0.70072,-0.0829 0.39935,-0.0838 0.70063,-0.0838 1.10103,-0.0838 0.10105,0 0.10105,0 0.20019,0 2.50239,-0.33082 4.60437,-0.82914 6.30603,-1.57453 -2.50239,0.0829 -4.80458,-0.16583 -6.80654,-0.74622 -2.80269,-0.66332 -5.20496,-1.98992 -7.10674,-3.81403 1.90082,1.82328 4.30405,3.15071 7.10674,3.81403 2.00196,0.58039 4.30415,0.82913 6.80654,0.74622 2.70259,-1.16079 4.30407,-2.98573 5.20499,-5.30647 -0.90092,2.32159 -2.5024,4.14568 -5.20499,5.30647 -1.70166,0.74539 -3.80364,1.24371 -6.30603,1.57453 -0.10008,0 -0.10008,0 -0.20019,0 -0.39935,0 -0.70063,0 -1.10103,0.0838 4.30404,7.04767 12.81224,11.19335 25.42321,12.51998 1.3023,0.0829 2.80375,0.24873 4.20404,0.33165 -1.40029,-0.0837 -2.90174,-0.24957 -4.20404,-0.33165 -6.60622,7.54514 -10.81028,14.92446 -12.81224,22.4696 -1.50136,4.31153 -2.7025,8.87179 -3.40218,13.51579 -0.5005,0.49747 -1.10207,0.91205 -1.8027,1.40869 -0.50052,0.24958 -0.89987,0.41457 -1.40039,0.5804 -1.40133,0.49831 -3.20303,0.82913 -5.30507,0.99496 -2.20208,-0.16583 -4.30511,-0.99496 -6.10679,-2.48741 -2.30219,-0.24873 -4.90372,-0.24873 -7.80747,0 -1.50143,0.49748 -2.00192,1.32662 -1.50143,2.48741 1.70162,0.41457 2.90275,1.49245 3.60343,3.15073 0.50048,1.74203 0.30129,3.31655 -0.39939,4.8919 -0.10108,0.16583 -0.10108,0.24875 -0.20018,0.41458 l 0,0 c -1.00095,2.40367 -0.90087,4.64317 0.20018,6.54935 5.70543,-0.91205 8.80841,-3.39944 9.40799,-7.54515 0.50051,2.4045 1.80271,3.64821 3.70353,3.89695 0.10114,0 0.10114,0 0.30031,0 1.60251,-2.81907 4.20404,-5.14065 7.60821,-6.88184 0.39945,-0.33165 0.89989,-0.5804 1.4004,-0.74622 0.60156,-0.24874 1.20113,-0.49749 1.70155,-0.66332 -0.50042,0.16583 -1.10103,0.41458 -1.70155,0.66332 -0.50051,0.16582 -1.00095,0.41457 -1.4004,0.74622 -3.40322,1.74119 -6.0057,4.06194 -7.60821,6.88184 l 1.10209,3.39946 c 1.70155,-0.41458 3.50332,-0.58038 5.20488,-0.49748 2.10206,0.99497 3.60351,2.23868 4.80467,3.64736 0.10008,0 0.10008,0.0838 0.2001,0.0838 0.60061,0.82913 1.20019,1.65827 1.50144,2.65325 l 0.39945,0.24873 c 4.80459,-0.82914 6.60731,-2.48742 5.20491,-4.89191 -0.10011,0 -0.10011,-0.16583 -0.20013,-0.24874 -0.20019,-0.24874 -0.39945,-0.49748 -0.6006,-0.74623 l -2.8027,-2.32158 2.8027,2.32158 c 0.2002,0.24958 0.39935,0.49831 0.6006,0.74623 0.10108,0.0829 0.10108,0.24874 0.20013,0.24874 l 0.4004,-0.24874 c 1.90081,-0.91207 3.60343,-1.8241 4.9037,-2.90198 1.70158,-1.40954 2.90273,-2.9849 3.60439,-4.72608 0.19925,-2.57034 -1.3022,-4.31153 -4.40414,-5.22357 3.1029,0.91204 4.60436,2.65323 4.40414,5.22357 -0.70063,1.74201 -1.90176,3.31654 -3.60439,4.72608 l 0.30031,0.33166 c 0,0.165 0.20013,0.41455 0.30127,0.6633 0.69968,1.15996 1.90082,1.90702 3.70248,2.40367 3.20311,-0.91205 5.30614,-1.9891 6.40612,-3.31656 -0.50042,-1.82326 0.20021,-3.48152 2.00196,-4.89108 1.70158,-0.99496 3.60343,-1.57536 5.50522,-1.57536 1.20112,0 2.40236,0.5804 3.50339,1.65829 0,0 0,0 0.1001,0 1.50138,-0.24875 2.20209,-0.82915 1.90179,-1.65829 0.3003,-1.57452 0,-3.0678 -0.50052,-4.56024 -0.10002,-0.16584 -0.10002,-0.33083 -0.20011,-0.41459 -0.39945,-0.74539 -0.80084,-1.49242 -1.30126,-2.23865 -0.20019,-0.16501 -0.40042,-0.41457 -0.60061,-0.57957 0,-0.0837 -0.10107,-0.24957 -0.20021,-0.33166 -0.10106,-0.0829 -0.10106,-0.0829 -0.10106,-0.0829 -2.80268,-1.98994 -6.00571,-3.40029 -9.30892,-4.22943 3.30321,0.82914 6.50624,2.23867 9.30892,4.22943 0,0 0,0 0.10106,0.0829 l 0,0 c 0.10011,0.0829 0.20021,0.16583 0.20021,0.33166 0.19925,0 0.3003,0.165 0.50051,0.24874 0.69968,0.24873 1.2001,0.58039 1.90081,0.82913 0.30032,0.16584 0.60158,0.24874 0.90084,0.33082 2.30217,0.74623 6.40516,0.49831 12.31174,-0.82912 -5.10488,-1.15997 -8.00759,-2.81823 -8.90852,-4.97483 -1.20008,-2.23785 -1.70061,-4.64317 -1.50136,-7.21268 0,-0.24955 0,-0.58038 0,-1.07869 -0.10011,-0.41457 -0.19925,-0.99414 -0.30032,-1.57453 -0.80082,-0.82913 -2.50238,-1.74203 -5.20497,-2.65324 2.70259,0.91204 4.40415,1.82411 5.20497,2.65324 0.6016,0.41456 1.20114,0.82913 1.80168,1.32662 2.10303,1.98991 4.00383,4.80898 5.40518,8.54011 3.0029,-3.73113 4.00384,-7.62724 2.9028,-11.60793 0,-0.0829 0,-0.0829 -0.10116,-0.16499 -0.10002,-0.41457 -0.20011,-0.82914 -0.39935,-1.24371 -0.40033,-1.49328 -1.30221,-2.73699 -2.60347,-3.9807 -1.30122,-1.24369 -3.20307,-2.23783 -5.40412,-3.15071 2.20105,0.91288 4.10384,1.90702 5.40412,3.15071 1.30021,1.24371 2.2021,2.48742 2.60347,3.9807 0.19924,0.41457 0.3003,0.82914 0.39935,1.24371 0.10116,0.0829 0.10116,0.0829 0.10116,0.16499 3.40225,1.24371 6.70539,1.57537 10.00954,0.91289 3.70258,-1.32745 6.40508,-2.81908 7.90652,-4.56026 -2.30219,0.33084 -4.4032,0.33084 -6.20592,0.33084 -0.1001,-0.165 -0.1001,-0.165 -0.1001,0 -3.10291,-0.33084 -5.70539,-1.15997 -8.00758,-2.40368 -0.10009,-0.0837 -0.30032,-0.24874 -0.4004,-0.33164 -0.10011,-0.0829 -0.10011,-0.0829 -0.19926,-0.0829 l 0,0 c -0.80169,-0.5804 -1.40124,-1.16077 -1.90176,-1.74201 -1.70166,-1.74119 -2.50239,-3.73111 -2.40229,-6.13479 l 0.20021,-0.33164 c 5.00479,1.07787 9.30883,4.06276 13.01236,8.95466 2.20217,-4.06194 -1.30124,-9.53506 -10.71018,-16.499 3.80459,0.5804 6.70644,1.65828 8.5081,3.39948 1.60252,-1.32663 1.80272,-2.81824 0.90084,-4.47652 -1.80168,-3.56613 -4.90467,-6.05353 -9.10864,-7.54599 4.40321,1.49246 8.70725,2.48742 13.01236,3.15073 1.20019,0.24957 2.40135,0.41457 3.70257,0.49831 6.90662,0.0829 11.2107,-1.74201 12.613,-5.3894 -1.90177,0.4975 -3.70354,0.91207 -5.20489,1.24371 -0.1001,0 -0.20021,0 -0.30031,0 -0.10114,0 -0.10114,0 -0.20021,0 -3.90372,0.5804 -6.90663,0.41458 -9.2088,-0.49831 -0.20021,-0.0829 -0.30031,-0.24874 -0.50044,-0.24874 -4.20403,-1.74117 -7.00674,-4.22859 -8.40703,-7.54515 2.80269,-1.74202 5.90465,-2.15658 9.20778,-1.2437 4.10489,1.57454 7.00663,3.64737 8.50809,6.30144 1.90185,-4.06195 0.30135,-7.62806 -4.70351,-10.69504 -0.30127,-0.24958 -0.60156,-0.33166 -0.90084,-0.49831 -5.70539,-2.15575 -11.8113,-2.40368 -18.21733,-0.5804 6.70635,-2.32159 11.71112,-5.30564 15.01432,-8.87093 1.20115,-2.15661 0.90084,-3.9807 -0.80082,-5.55523 -3.70352,3.81404 -9.20874,6.13479 -16.41566,7.2135 -4.60437,0 -8.3079,-0.66415 -11.31079,-2.15658 6.00571,-1.24371 9.20881,-4.22861 9.61018,-8.70595 -0.30126,0.16583 -0.4004,0.33165 -0.60158,0.58039 -0.20019,0.16583 -0.39935,0.24875 -0.70063,0.49748 -2.8027,2.07284 -6.1059,3.15156 -10.00955,3.15156 -0.1001,0 -0.1001,0 -0.19924,0 -0.30128,0 -0.50042,0 -0.70063,0 -0.90092,-0.0837 -1.90185,-0.16583 -2.80269,-0.33167 -4.80561,-2.15575 -7.50714,-5.05773 -8.20787,-8.87177 2.90184,2.902 6.80653,4.47735 11.40991,4.64401 2.80367,-0.24957 4.80563,-0.99497 5.90564,-2.23868 0.20019,-0.24874 0.4004,-0.4983 0.5005,-0.82913 -1.80177,0.16583 -3.50334,0 -5.10486,-0.41457 -6.40614,-1.65827 -11.61208,-7.54598 -15.91526,-17.49563 0,0 0,-0.16498 0,-0.24874 0,0 0,0 0,0.0838 0,0.0829 0,0.0829 0.1001,0.16498 3.50342,4.80984 8.00767,6.96477 13.1135,6.13563 -2.40227,-2.23868 -4.40416,-5.14066 -5.90559,-8.62305 -1.60154,-3.48153 -2.6025,-7.54514 -3.10293,-12.18748 -0.2002,-1.40954 -0.30028,-2.90198 -0.4004,-4.47734 l 0,-3.0678 c 0.60157,0.49831 1.20116,0.99495 1.90179,1.57536 0.8008,0.5804 1.60154,1.24369 2.4013,1.8241 7.50716,5.13981 16.81704,7.46223 28.02678,7.04768 0,0 0.2002,0 0.30125,0 0.19927,0 0.30032,0 0.50052,0 0.10011,0 0.19915,0 0.19915,0 0.20021,0 0.40042,0 0.50051,0 13.31669,0.16333 25.128,-3.40197 35.33775,-10.8642 11.71016,-8.37428 17.61682,-21.05927 17.71587,-37.80867 0.40041,-2.90197 1.70166,-4.56025 4.00383,-4.97482 1.80273,-0.24874 4.1049,0.24875 7.1078,1.74119 1.20116,-3.97986 -1.40134,-6.30144 -7.70736,-6.79893 l -0.10011,0 c -0.10105,-0.0829 -0.30126,-0.0829 -0.40041,-0.0829 -4.00373,0.58041 -6.90653,2.15577 -8.7083,4.7261 -0.3003,0.41456 -0.60053,0.82913 -0.80072,1.32661 0.20019,-0.49748 0.50042,-0.91205 0.80072,-1.32661 1.80177,-2.57116 4.70457,-4.14569 8.7083,-4.7261 0.1001,-0.0829 0.30033,-0.0829 0.40041,-0.0829 9.50912,-8.70595 13.2116,-14.84157 11.01049,-18.32477 -1.50137,-2.73615 -3.8046,-4.64317 -7.10769,-5.55522 4.50423,4.22942 2.70248,7.96054 -5.40424,11.11044 -7.40707,1.98993 -12.01142,6.96475 -13.71308,14.67572 -2.00187,-6.38435 -4.90467,-11.27709 -8.7083,-14.5099 -4.70446,-3.81486 -9.30892,-9.7009 -13.91327,-17.41187 -2.60249,-5.22357 -3.80365,-9.94967 -3.70257,-14.34408 0,-1.07789 0.19923,-2.07285 0.39944,-3.06782 l 0,-0.0829 c 0.70064,-2.81906 2.20208,-4.72609 4.50426,-5.9698 3.10398,-1.65825 6.80654,-1.65825 10.91038,-0.0829 1.60156,1.49244 1.50145,2.81907 -0.30022,3.97986 4.20299,-0.33167 5.90464,-1.7412 4.90362,-4.31151 -0.50042,-0.66333 -1.10105,-1.2437 -1.70156,-1.82411 -3.50341,-2.90198 -8.70736,-3.89694 -15.61495,-2.73616 -0.1001,0.0829 -0.20019,0.0829 -0.4004,0.0829 -0.19916,0.0829 -0.50042,0.24875 -0.69966,0.33166 -4.30513,1.49245 -6.80751,4.56024 -7.80843,9.12051 l 0,0 c -3.10301,-9.78383 -4.20299,-20.31387 -3.20206,-31.67304 0.60052,-6.0527 3.60343,-12.18833 9.20775,-18.24103 7.10782,-5.63813 12.91237,-8.45721 17.81808,-8.29137 4.80456,0.16583 9.30884,1.40953 13.71203,3.81403 4.3051,2.4045 6.10685,6.71601 5.60635,12.76871 -0.60159,3.89696 -3.50332,6.88184 -8.60915,9.0376 -0.30033,0.0829 -0.39947,0.24874 -0.60063,0.33166 -0.90082,0.33165 -2.00189,0.74623 -3.20301,1.07787 -0.50052,0.0829 -1.00095,0.24875 -1.50145,0.33166 -2.30219,0.5804 -4.70447,-0.16583 -7.00674,-1.90701 -1.50135,-1.57538 -1.80168,-3.89694 -1.10105,-6.96476 -4.50425,4.2286 -4.80455,8.20847 -0.80072,11.85666 3.20204,2.98489 7.4061,3.48238 12.51194,1.7412 1.10103,-0.41458 2.30215,-0.91205 3.60341,-1.57538 -1.30126,0.66333 -2.50238,1.1608 -3.60341,1.57538 -5.60636,6.21853 -3.10399,9.94964 7.60724,10.86168 1.10104,0.0829 2.30219,0.16584 3.60344,0.16584 -8.10769,-0.82914 -10.10965,-3.06781 -6.00571,-6.55019 0.60157,-0.58038 1.3022,-1.16079 2.30324,-1.74119 0.69966,-0.49748 1.30123,-0.99496 2.10197,-1.40953 12.71213,-6.96475 17.4166,-16.00235 14.21358,-27.02987 -2.90279,-6.88184 -8.30797,-12.27124 -16.41567,-15.91945 -1.30123,-0.58038 -2.70259,-1.07787 -4.20403,-1.74119 -2.90174,0 -5.6054,0.0829 -8.20683,0.33166 -2.40229,0.41457 -4.20402,1.07788 -5.60635,1.90703 1.40135,-0.82915 3.20302,-1.49246 5.60635,-1.90703 2.60248,-0.24873 5.30509,-0.33166 8.20683,-0.33166 1.70164,0.0829 3.50332,0.16583 5.30604,0.24875 4.20298,0.16583 7.80746,-0.99497 10.70921,-3.39946 4.90468,-4.47734 7.90758,-9.45217 8.90851,-15.0074 0.20021,-3.73027 -0.80074,-7.46139 -3.10291,-11.19251 l 0,-1.8e-4 z"/>
      <path style="fill:#fcef3c;fill-opacity:1;stroke:#000000;stroke-width:1.92212415;stroke-miterlimit:4;stroke-opacity:1;stroke-dasharray:none" id="path3717" d="m 268.76355,260.51348 3.3249,4.72608 c 6.20592,-0.24875 12.41185,-0.16583 18.81796,0.33165 3.80364,0.24874 6.70639,1.40954 8.60823,3.48238 2.40227,-2.07284 2.30219,-4.72608 -0.10013,-7.95971 -0.80074,-0.91205 -1.7016,-1.8241 -2.80266,-2.65324 -4.20401,-0.82915 -8.40803,-1.24371 -12.51195,-1.24371 -4.00381,0.0829 -8.20783,0.0829 -12.81221,0 l -2.40231,2.07285 0,0 -1.40135,-1.74119 c -5.70543,0 -11.11059,0 -16.21547,-0.0829 -3.20304,-0.24873 -6.30602,-2.32158 -9.30889,-6.0527 -1.40134,1.40953 -1.90179,3.31656 -1.50142,5.47231 1.40134,3.64821 4.10391,5.96979 8.10774,6.88185 5.30507,1.40953 10.81032,2.07283 16.71596,1.907 0.20018,-0.0829 0.40037,-0.0829 0.60056,-0.0829 l 2.88104,-5.05773 z"/>
      <path style="fill:#fcef3c;fill-opacity:1;stroke:#000000;stroke-width:1.92212415;stroke-miterlimit:4;stroke-opacity:1;stroke-dasharray:none" id="path3719" d="m 272.08845,265.23956 -3.80364,-4.72608 -2.4023,5.05773 -0.80075,2.15575 c 3.70354,-0.0829 7.00669,0.16584 9.70928,0.82916 l -2.70259,-3.31656 z"/>
      <path style="fill:#fcef3c;fill-opacity:1;stroke:#000000;stroke-width:1.92212415;stroke-miterlimit:4;stroke-opacity:1;stroke-dasharray:none" id="path3735" d="m 168.28517,359.20345 c -5.0541,-8.80059 -31.24803,1.77056 -19.11825,11.44209 -0.32427,-3.90863 10.11947,-7.36778 9.90946,-2.23865 6.67399,-1.05535 11.59292,-3.74511 9.20879,-9.20344 z"/>
      <path style="fill:#fcef3c;fill-opacity:1;stroke:#000000;stroke-width:1.92212415;stroke-miterlimit:4;stroke-opacity:1;stroke-dasharray:none" id="path3737" d="m 147.51421,382.25348 c -13.28021,2.13316 -14.12361,14.5802 -1.07337,20.96206 -3.26248,-5.87871 0.48445,-10.80565 8.13864,-12.4965 6.20286,-4.91791 -0.22809,-7.68007 -7.06527,-8.46556 z"/>
      <path style="fill:#fcef3c;fill-opacity:1;stroke:#000000;stroke-width:1.92212415;stroke-miterlimit:4;stroke-opacity:1;stroke-dasharray:none" id="path3739" d="m 166.63648,402.42413 c 5.11531,-2.43083 14.88736,0.0368 11.89652,4.52399 -5.29637,11.81384 -29.09714,6.48727 -30.47682,-3.54707 5.70084,2.50353 17.25464,1.90569 18.5803,-0.97692 z"/>
      <path sodipodi:nodetypes="cscccccscccccscscsccccccccccsccccccccccsccccccccccscccccccccccccccsccccccccccccsccccccccccccsccccccccccccccccsccccccccccccccsscccccccccsccccccccccccccccccc" style="fill:#fcef3c;fill-opacity:1;stroke:#000000;stroke-width:1.92212415;stroke-miterlimit:4;stroke-opacity:1;stroke-dasharray:none" id="path3741" d="m 219.73847,431.31578 c -0.70067,3.23281 -0.50048,5.80395 0.70068,7.54515 0.40038,0.58039 0.90085,0.99497 1.50143,1.40953 1.30122,0.82914 2.90276,1.2437 5.00476,1.32662 3.10297,0 7.10679,-0.66331 12.11158,-2.15576 -3.60345,2.48742 -7.00669,4.14569 -10.40994,4.89108 -0.60059,0.0837 -1.10105,0.24957 -1.60152,0.24957 -3.103,0.41457 -6.00575,0 -8.80842,-0.99496 -1.40134,-0.49831 -2.80268,-1.24371 -4.10393,-1.98993 -0.40038,-0.33082 -0.80076,-0.7454 -1.40133,-0.99495 0.30028,0.41455 0.60057,0.82912 0.80076,1.24369 4.10391,6.6331 8.80841,8.78968 14.21358,6.55019 0,-0.0829 0,-0.0829 0,-0.16583 0.60057,-0.24875 1.10105,-0.49748 1.60151,-0.66331 0.20021,-0.0829 0.40039,-0.16583 0.70068,-0.24875 2.70259,-1.07789 5.60536,-1.40952 8.30793,-1.07789 -2.70257,-0.33163 -5.60534,0 -8.30793,1.07789 -0.30029,0.0829 -0.50047,0.16582 -0.70068,0.24875 -0.50046,0.16583 -1.00094,0.41456 -1.60151,0.66331 0,0.0837 0,0.0837 0,0.16583 -1.90182,5.05773 -7.60727,8.29136 -17.01625,9.7009 9.80936,3.0678 17.11633,1.32662 22.02103,-5.22356 l 0.40038,0.24874 c -0.50051,2.07284 -1.20116,4.06194 -2.2021,5.88687 -2.7026,5.22357 -7.40709,9.53509 -13.81319,13.10038 5.00476,0.66414 9.30886,0.16582 12.61203,-1.40871 3.50336,-1.65828 6.20593,-4.56025 7.80746,-8.62303 -0.20019,5.14064 -2.10201,9.28634 -5.60536,12.51998 0.80078,1.0787 1.70162,2.15658 2.80269,3.0678 1.10105,0.91288 2.30221,1.74202 3.50335,2.48741 2.70257,1.57537 5.80552,2.73615 9.40897,3.64821 -4.50432,0.24874 -7.80746,0 -9.70928,-1.07787 -0.50047,-0.24957 -0.80076,-0.49831 -1.10104,-0.66415 -0.1001,0 -0.1001,0 -0.1001,0 -0.60057,-0.33082 -1.00093,-0.57956 -1.10104,-0.6633 -1.50143,-0.49748 -2.50239,-0.7454 -3.0029,-0.91206 -0.50046,-0.0837 -1.00093,-0.16582 -1.70159,-0.16582 -2.00193,-0.0829 -5.00479,0.24873 -9.10868,0.99495 -5.30508,1.90703 -11.51101,3.15073 -18.91809,3.64739 -1.70163,-0.0829 -3.20307,-0.41459 -4.6044,-0.99414 -1.40134,-0.5804 -2.70258,-1.40954 -3.90372,-2.48742 -0.30029,-3.56611 -1.50144,-7.54598 -3.70354,-11.77375 -1.20115,-0.74622 -3.00287,-0.99496 -5.40516,-0.82913 -1.10105,-0.16583 -1.70163,0.0829 -2.00191,0.91204 0,0.0837 0,0.0837 0,0.16584 0,0 0,0 0,0.0829 4.20401,5.30649 3.50334,7.71182 -2.40229,7.29724 -1.40134,0.0829 -3.70354,0.41458 -6.8065,1.07789 -3.20306,1.32662 -4.10392,2.81824 -2.80267,4.4765 l 0.30027,0.24958 c 0.20021,0.165 0.30029,0.41456 0.50048,0.66331 0.1001,0.0829 0.1001,0.0829 0.2002,0.16583 1.40134,1.57453 3.50334,2.81823 6.10583,3.73112 4.00382,1.15995 9.30888,1.49245 16.01529,0.82913 -3.80364,2.40367 -9.50909,2.98489 -17.31653,1.57453 -2.3022,-0.66331 -5.10488,-1.7412 -8.30794,-3.31655 l -1.90182,1.49246 c 3.20306,2.90198 4.9047,5.72105 5.30507,8.45719 -0.40037,1.90703 -1.80172,3.56529 -4.20401,5.05857 0,0.16499 0,0.24874 -0.1001,0.33082 -0.80076,1.65828 -0.20019,2.90199 1.60154,3.64822 l 5.00476,-0.0837 c 2.90278,-1.40871 4.30411,-3.31656 4.40422,-5.72022 0.10009,2.40366 0.80076,3.73112 1.90181,4.06195 2.50239,0.41456 4.80459,0.16583 6.90659,-0.41459 1.90182,-0.74538 3.80363,-0.82912 5.60536,-0.41456 2.90277,-1.2437 4.60438,-2.65241 5.30506,-4.4765 -0.70068,1.82409 -2.40229,3.2328 -5.30506,4.4765 -1.80173,-0.41456 -3.70354,-0.33082 -5.60536,0.41456 -0.60057,0.16584 -1.20114,0.49832 -1.80172,0.82915 l -5.00477,3.48238 1.90181,1.98994 c 0,0 0,0 0.10009,0 4.40421,0.99495 7.70736,2.81823 9.80937,5.47229 0.60058,1.16079 0.50049,1.98994 -0.50048,2.48742 -0.1001,0.0838 -0.1001,0.0838 -0.1001,0.0838 -0.30028,1.15994 0.50048,1.82326 2.5024,2.15575 2.2021,0.74622 4.10391,0.91204 5.60535,0.0829 3.40324,-1.82327 5.30507,-4.39443 5.70545,-7.62723 -1.70162,-2.15659 -0.70066,-4.89191 3.20305,-8.29137 -3.90371,3.39946 -4.90467,6.13478 -3.20305,8.29137 0.70067,0.91204 2.00189,2.48741 3.70354,4.72525 2.80267,-4.06195 5.40515,-6.71601 7.90755,-7.87681 -2.5024,2.90199 -3.40326,5.80397 -2.80267,8.70594 0,0 0,0 0,0.0837 l 0,-0.0837 c 4.70448,-4.06194 10.30983,-6.30143 17.01623,-6.79809 -2.102,4.97483 -7.30697,8.29137 -15.51481,10.11465 -0.10008,0 -0.10008,0 -0.20018,0.0837 1.70162,3.73111 5.90564,4.97482 12.81223,3.81403 5.00478,-1.57453 8.30792,-4.2286 10.10964,-7.79306 l 0.50048,0.0829 c 0.30028,-2.23867 1.80171,-4.14566 4.20402,-5.72102 -2.40231,1.57536 -3.90374,3.48235 -4.20402,5.72102 -0.10008,0.33167 -0.20018,0.5804 -0.20018,0.91206 -0.80078,8.37513 5.00477,12.35415 17.31651,12.10624 0.2002,0 0.30029,0 0.6006,0 -0.20023,-0.0838 -0.30031,-0.0838 -0.30031,-0.0838 -0.10009,-0.165 -0.20018,-0.165 -0.30029,-0.165 -4.50428,-1.74202 -6.80647,-4.72607 -6.5062,-8.78967 l 0,-0.16584 c -0.1001,-2.32158 1.60153,-4.97482 5.20497,-7.9597 3.80364,4.22859 5.90563,8.78885 6.40611,13.59783 4.40421,-5.47314 6.00574,-11.6079 5.10487,-18.40683 0.10011,0.24873 0.10011,0.41455 0.2002,0.58038 0,0.165 0,0.24875 0.10008,0.41457 0.3003,0.99413 0.70068,2.07285 1.20116,3.06699 3.50333,6.88265 10.61013,10.36421 21.22027,10.28131 -6.20593,-3.39948 -10.61014,-7.95973 -13.21261,-13.59787 -0.60058,-0.49747 -1.20118,-1.15996 -1.80172,-1.82328 0.60054,0.66332 1.20114,1.32663 1.80172,1.82328 3.80362,3.4003 8.8084,5.14065 14.91423,5.38941 1.60152,-0.0829 3.10296,-0.33083 4.50428,-0.74542 2.5024,-0.91287 4.50431,-2.40449 6.00575,-4.47732 l -0.1992,-0.16583 0.39938,-0.41457 c -0.39938,0.24957 -0.90086,0.4983 -1.30122,0.66413 -2.50239,1.24371 -4.7045,1.82327 -6.40614,1.65829 -6.40611,-0.74622 -10.00954,-4.1457 -10.81032,-9.94966 0.50049,-4.64399 3.10297,-8.54095 7.60727,-11.69166 1.00096,-0.7454 2.00192,-1.40954 3.20305,-1.98911 l 0,-0.16582 0.10011,-0.0837 c 0.50048,-3.39946 1.17061,-7.68197 2.87223,-11.74474 -0.70067,0.99495 -1.2707,2.54132 -2.27167,3.45338 -0.10008,0.0837 -0.20017,0.24955 -0.30028,0.33165 -0.10008,0.16582 -0.30028,0.24873 -0.40039,0.41455 -2.102,1.65828 -4.60438,3.15074 -7.60725,4.39444 -0.1001,0.0837 -0.30029,0.0837 -0.40039,0.0837 -5.80552,1.4087 -11.71116,1.15996 -17.31653,-0.5804 -3.56124,-1.62158 -5.56538,-4.10282 -7.30697,-7.96054 -2.0662,-7.69039 4.84747,-11.78086 11.3108,-13.2662 -3.0317,3.59267 -6.18727,4.39937 -4.6044,9.61883 0.2002,0.6633 0.4004,1.40954 0.80076,1.90701 1.00097,1.82412 2.70257,3.06782 5.20497,3.81402 2.2021,0.58041 4.80459,0.58041 7.60726,0 3.20307,-0.6633 5.50526,-1.65826 7.1068,-2.81823 1.60151,-1.24371 2.30219,-2.73616 2.2021,-4.47734 0.10009,-3.23281 0.30028,-7.29641 0.70067,-12.02248 0.70066,-4.64317 2.50239,-9.36926 5.50525,-14.0116 3.00287,-4.06278 7.20686,-8.12637 12.91233,-12.18832 0.30028,-0.24875 0.39938,-0.41456 0.60057,-0.5804 1.70162,-1.65828 2.70254,-3.56529 3.00284,-5.55522 0.30031,-2.15576 -0.3003,-4.47652 -1.70159,-7.04766 -0.3003,-1.8241 -0.39939,-3.64739 -0.39939,-5.3894 l -0.70067,-1.32662 c -12.51194,0.7454 -22.82179,4.14569 -30.92953,10.11549 -3.50334,-0.33167 -6.90659,-0.58041 -10.40993,-0.74623 -6.50622,0 -12.31176,1.32661 -17.11633,3.97984 -5.20499,5.05859 -9.70928,8.20846 -13.7131,9.45217 -0.40037,0.0829 -0.70067,0.24874 -1.10105,0.33085 -3.50335,0.82913 -6.60629,0.16581 -9.10869,-1.82329 -2.80268,-2.15658 -1.90183,-5.14065 2.90278,-8.87176 -6.60733,-0.16998 -10.51104,1.98577 -11.91239,6.38021 l 0,-10e-6 z"/>
      <path style="fill:#fcef3c;fill-opacity:1;stroke:#000000;stroke-width:1.92212415;stroke-miterlimit:4;stroke-opacity:1;stroke-dasharray:none" id="path3743" d="m 334.14767,335.38459 c 1.10103,-1.65829 2.40229,-3.23364 3.90373,-4.72608 -1.90176,-0.16584 -3.8046,-0.49749 -5.50528,-0.99498 l -1.80271,0.24875 c -2.5024,2.32241 -6.10583,3.98068 -11.0105,4.8919 -2.10197,2.15575 -2.30218,4.22861 -0.39936,6.30145 3.40226,3.15156 7.20685,4.97482 11.81131,5.63896 0.10009,-3.73194 1.00093,-7.54597 3.00281,-11.36 z"/>
      <path style="fill:#fcef3c;fill-opacity:1;stroke:#000000;stroke-width:1.92212415;stroke-miterlimit:4;stroke-opacity:1;stroke-dasharray:none" id="path3747" d="m 301.81683,396.98948 c -1.20114,0.41459 -2.00192,0.91206 -2.90278,1.49246 -1.50143,0.91288 -2.5024,2.48741 -3.00286,4.72607 8.80841,0.16583 14.11447,3.15073 15.91519,9.0376 0.10009,0.0829 0.10009,0.0829 0.10009,0.24874 0.3003,-2.81906 1.20115,-5.30647 2.80273,-7.71097 -0.10012,-0.0837 0,-0.16583 0.10105,-0.16583 -2.60348,-3.6482 -5.60637,-6.38436 -9.30889,-8.37511 -1.40234,0.16665 -2.60348,0.41539 -3.70453,0.74704 z"/>
      <path style="fill:#fcef3c;fill-opacity:1;stroke:#000000;stroke-width:1.92212415;stroke-miterlimit:4;stroke-opacity:1;stroke-dasharray:none" id="path3749" d="m 308.62333,538.77197 c -2.60249,0.49749 -4.90469,1.40953 -6.9066,2.81908 -2.20209,1.74118 -3.70354,3.64738 -4.4032,5.80396 -0.80078,2.73615 -0.80078,5.38939 -0.20019,7.87679 1.20112,2.90199 3.90372,4.89108 8.20784,6.05271 -1.70163,-2.32159 -2.20211,-4.809 -1.70163,-7.79388 1.70163,-3.15073 4.30411,-5.30566 7.90754,-6.30146 0.1001,-0.16581 0.19918,-0.24873 0.30029,-0.41456 0.70068,-1.57536 0.89985,-3.15071 0.39939,-4.89192 -0.70068,-1.65825 -1.90182,-2.73614 -3.60344,-3.15072 z"/>
      <path style="fill:#fcef3c;fill-opacity:1;stroke:#000000;stroke-width:1.92212415;stroke-miterlimit:4;stroke-opacity:1;stroke-dasharray:none" id="path3751" d="m 331.54517,553.03314 c -1.70155,-0.0837 -3.50332,0.0829 -5.20496,0.49749 -1.00096,0.24874 -1.80166,0.49831 -2.80262,0.91288 -0.3003,3.2328 0.10012,6.38353 1.40126,9.45134 1.1021,1.90701 2.60354,3.48236 4.50434,4.56025 3.30313,0.99496 5.80551,1.16079 7.60823,0.41457 2.10208,-0.66331 3.60351,-1.40953 4.70349,-2.15577 -3.0028,0.24875 -5.30505,-0.41457 -7.00662,-1.8241 -2.10207,-2.15576 -2.30219,-4.31151 -0.69967,-6.46727 l 1.60147,-1.32745 0.7007,-0.41457 c -1.20219,-1.40871 -2.70355,-2.6524 -4.80562,-3.64737 z"/>
      <path style="fill:#fcef3c;fill-opacity:1;stroke:#000000;stroke-width:1.92212415;stroke-miterlimit:4;stroke-opacity:1;stroke-dasharray:none" id="path3753" d="m 370.68255,546.89752 c -1.10107,-1.07787 -2.30219,-1.65827 -3.50334,-1.65827 -1.90178,0 -3.80363,0.5804 -5.50519,1.57536 -1.80177,1.40952 -2.5025,3.06782 -2.00197,4.89108 1.80176,0.41457 2.90279,1.16079 3.30311,2.32242 0.60157,1.24369 0.80084,2.40366 0.30031,3.39946 -1.10105,1.90703 -3.20205,2.81906 -6.5062,2.73616 0.70069,1.907 2.90278,2.90198 6.5062,3.15071 5.20498,-0.6633 7.80852,-2.40367 8.00767,-5.38939 0.50051,-3.56527 0.40042,-7.21266 -0.50051,-10.86169 0,-0.0829 0,-0.0829 -0.10008,-0.16584 z"/>
      <path style="fill:#fcef3c;fill-opacity:1;stroke:#000000;stroke-width:1.92212415;stroke-miterlimit:4;stroke-opacity:1;stroke-dasharray:none" id="path3755" d="m 174.09489,478.41077 c 3.10296,-0.6633 5.40516,-0.99495 6.8065,-1.07787 5.90563,0.41457 6.6063,-1.98993 2.40229,-7.29724 -0.10009,-0.0829 -0.10009,-0.0829 -0.2002,-0.165 -0.10009,0 -0.10009,-0.16583 -0.10009,-0.16583 -2.70258,-1.82408 -6.10583,-2.65324 -10.00956,-2.40449 -5.80553,0.41456 -9.80936,1.65827 -12.01146,3.56529 -2.70258,2.23866 -3.80363,4.47734 -3.10297,6.71684 3.90374,-2.4045 8.30794,-3.56529 13.11253,-3.56529 3.10296,1.24371 4.00381,2.81823 2.60248,4.56025 l 1.50144,-0.49831 c -0.40039,0.0829 -0.70068,0.24874 -1.00096,0.33165 z"/>
      <path style="fill:#fcef3c;fill-opacity:1;stroke:#000000;stroke-width:1.92212415;stroke-miterlimit:4;stroke-opacity:1;stroke-dasharray:none" id="path3757" d="m 166.888,488.27752 c -5.60534,1.40952 -9.30888,4.31151 -11.21069,8.45719 -0.70067,3.6482 -0.40039,6.79893 0.80077,9.45218 2.10199,2.90197 5.00477,4.31151 8.5081,4.39442 -1.60151,-1.57537 -2.30218,-3.56528 -1.90181,-6.13562 0.90086,-1.65827 2.5024,-2.48742 4.80459,-2.32159 0.1001,-0.0829 0.1001,-0.16583 0.1001,-0.33082 2.40229,-1.49328 3.80364,-3.15154 4.20401,-5.05857 -0.40037,-2.73614 -2.10201,-5.55521 -5.30507,-8.45719 z"/>
      <path style="fill:#fcef3c;fill-opacity:1;stroke:#000000;stroke-width:1.92212415;stroke-miterlimit:4;stroke-opacity:1;stroke-dasharray:none" id="path3759" d="m 182.90329,509.91799 c -0.10009,0 -0.10009,0 -0.10009,0 -3.40324,3.39947 -5.10487,7.21349 -5.20497,11.52419 0.70067,6.21853 5.10488,8.45719 13.31272,6.6331 -3.50336,-1.82328 -5.00479,-4.47652 -4.40421,-7.87681 1.20114,-2.07285 3.00286,-2.90198 5.50525,-2.23783 0.10009,0 0.10009,0 0.10009,0 0,-0.0838 0,-0.0838 0.1001,-0.0838 1.00097,-0.49748 1.10106,-1.32663 0.50048,-2.48742 -2.10201,-2.65241 -5.40516,-4.4765 -9.80937,-5.47148 z"/>
      <path style="fill:#fcef3c;fill-opacity:1;stroke:#000000;stroke-width:1.92212415;stroke-miterlimit:4;stroke-opacity:1;stroke-dasharray:none" id="path3731" d="m 200.59789,311.08664 c -0.93,-1.7037 -1.19492,-3.36536 -0.56113,-5.15976 -1.63188,0.53386 -3.06346,1.45573 -4.19579,2.61914 -2.14078,2.48564 -1.16573,4.97846 2.86731,7.73523 -1.215,-2.99326 -0.5435,-4.67234 1.88961,-5.19461 z"/>
      <path style="fill:#fcef3c;fill-opacity:1;stroke:#000000;stroke-width:1.92212415;stroke-miterlimit:4;stroke-opacity:1;stroke-dasharray:none" id="path3943" d="m 180.60743,264.25953 c -5.08827,-3.32537 -9.41557,-11.59709 -17.5269,-10.26323 -2.20093,1.02574 -3.00191,1.9873 -2.64166,3.15049 -0.077,0.051 -0.077,0.051 -0.008,0.11301 4.32735,1.8545 8.7995,6.68855 1.3304,7.31372 -1.71179,0.16982 -1.9777,1.18904 -1.93331,2.46593 0.9565,4.7874 5.80619,7.55352 10.96757,4.70477 -0.79434,0.69421 -1.37201,1.43777 -2.19091,2.22442 -0.0964,0.0228 -0.0964,0.0228 -0.0681,0.10227 4.28865,1.48163 8.74245,1.37347 13.4861,-0.26785 -4.74365,1.64132 -9.19745,1.74948 -13.4861,0.26785 -0.0283,-0.0794 -0.0283,-0.0794 0.0681,-0.10227 -1.43899,-0.52036 -3.39941,-0.74481 -5.7284,-0.53734 -2.61268,0.87779 -10.1048,-13.44493 -11.45969,-12.2623 -0.66903,0.76162 0.71481,7.2648 0.82796,7.58257 0.0672,1.06081 -7.30725,-1.64499 -6.24264,0.53356 -1.66521,2.04694 -3.00227,5.5473 -1.26894,6.60089 2.36718,2.54011 11.26123,-3.08879 7.76923,-0.27969 -0.49397,1.84001 1.79555,7.27077 3.25135,8.13173 2.16993,0.51937 4.42882,0.53141 6.01005,-0.0157 1.37248,-2.30669 9.46344,2.89105 9.4872,0.90409 1.69889,1.83706 2.34954,3.66418 1.9802,5.56076 3.57528,0.35854 6.18796,-0.51921 7.87775,-2.81496 0.30051,-0.32968 0.54442,-0.81822 0.78835,-1.30678 -0.24393,0.48856 -0.48784,0.9771 -0.78835,1.30678 -1.20811,2.18156 -1.68525,4.36217 -1.36342,6.4395 0.35709,-0.17078 0.74247,-0.26213 1.12782,-0.35347 3.90486,-1.35636 7.27065,-1.29274 9.69518,-0.0584 l 0.0451,0.42005 -8.79526,1.99874 c 1.0016,2.51923 3.19367,3.98093 6.50824,4.4874 3.28626,0.42707 7.72326,-0.0217 13.18638,-1.40284 -5.46312,1.38116 -9.90012,1.82991 -13.18638,1.40284 -3.60063,4.55778 -4.11298,8.9865 -1.66171,13.22959 0.57881,-1.60169 1.90543,-2.86375 3.84371,-3.58166 0.16439,-0.12509 0.35704,-0.17077 0.54974,-0.21645 0.0681,-0.10227 0.26075,-0.14792 0.3571,-0.17079 0.0963,-0.0228 0.19267,-0.0457 0.19267,-0.0457 3.74045,-1.23122 9.55987,-1.3185 17.4299,-0.34125 -3.83226,3.32051 -9.2839,4.44048 -16.29834,3.51886 4.93315,4.17165 11.3642,4.62854 19.3498,1.52956 l 0.1812,0.21549 c -4.55709,2.45853 -7.83958,5.56258 -10.10823,9.46001 l 0.0283,0.0794 c -0.068,0.10229 -0.13611,0.20457 -0.13611,0.20457 l 0.0283,0.0795 c 0.0681,-0.1023 0.26075,-0.14796 0.26075,-0.14796 l 0.0963,-0.0228 c 5.40735,-3.00471 11.73753,-4.59138 19.22301,-4.98745 -7.49241,2.72362 -12.04949,5.18219 -13.71101,7.55741 -0.98101,1.35241 -0.94206,2.63536 0.0488,3.9511 5.81564,-3.61838 13.4487,-4.48014 22.67821,-2.61911 l -0.0398,0.18171 -0.0512,0.44289 c -7.35549,1.05443 -11.02259,2.78514 -11.1939,5.23782 0.77074,-0.1827 1.47343,-0.26311 2.27245,-0.36638 5.64964,-0.56392 10.4261,-0.0594 14.59013,1.36563 -3.37272,2.26395 -8.12703,2.70178 -14.20639,1.47236 2.64471,2.73273 6.19093,4.47649 10.55376,4.99294 0.66371,-1.36338 1.97884,-2.36427 3.9454,-3.00275 -0.0283,-0.0794 -0.0283,-0.0794 0.0963,-0.0229 0.16437,-0.12509 0.45341,-0.19361 0.64612,-0.23927 -0.23247,0.22738 -0.43662,0.5342 -0.54443,0.81821 -0.068,0.10228 -0.23243,0.22739 -0.23243,0.22739 -0.54444,0.81821 -0.86788,1.67021 -0.9306,2.37423 0.31731,0.0109 0.63462,0.0218 1.04829,0.01 0.12461,0.0566 0.22096,0.0338 0.31731,0.0109 2.45362,-0.15088 5.13966,-0.52916 8.02988,-1.21428 -3.45144,1.16274 -6.14363,2.40392 -8.14463,3.82585 0.3456,0.0904 0.62315,0.28301 0.99704,0.45283 2.83819,1.2224 5.49598,0.76468 7.98478,-1.63433 2.51714,-2.31958 3.33454,-5.01155 2.5203,-8.17822 -3.33136,-0.84707 -6.36224,-2.02383 -9.34186,-3.64343 -0.0963,0.0228 -0.0963,0.0228 -0.0963,0.0228 -2.23185,-1.28001 -4.42396,-2.74173 -6.50822,-4.48745 -0.5834,-0.46473 -1.3197,-1.0655 -1.83503,-1.6325 6.84313,3.37431 11.03088,2.81234 12.46689,-1.66304 0.34342,-6.37001 5.23623,-11.40638 14.67836,-15.10905 l 0,0 c -7.50309,1.52011 -13.26511,0.30162 -17.56363,-3.84817 -1.65301,-2.88169 -0.51829,-5.56273 2.99052,-8.03126 1.6469,3.74461 4.92089,5.89747 10.20735,6.36723 0.26071,-0.14793 0.6461,-0.23929 1.03144,-0.33064 l -1.41523,-2.50732 c -2.55452,-1.89267 -5.30171,-3.7397 -7.89597,-5.45067 -10.7395,-7.27482 -20.01831,-16.03144 -32.11805,-22.72543 -5.41063,-3.11768 -13.79849,-3.51993 -20.09931,-5.38508 -3.09437,0.99197 -8.7527,-0.22345 -12.23084,-2.06946 z"/>
      <path style="fill:#fcef3c;fill-opacity:1;stroke:#000000;stroke-width:1.92212415;stroke-miterlimit:4;stroke-opacity:1;stroke-dasharray:none;display:inline" id="path3709" d="m 309.91457,217.52795 c -4.80459,1.8241 -12.21165,2.98489 -22.2212,3.64821 -0.3003,0.0829 -0.60058,0.0829 -0.80077,0.16581 l -0.1001,0 c -15.61491,1.7412 -27.32608,4.06278 -35.03345,7.13058 -2.00191,0.74622 -3.70354,1.49246 -5.10487,2.32159 0.2002,2.23867 1.30124,3.56529 3.40326,3.97986 0,0.0829 0,0.0829 0,0.0829 l 0,0 3.60342,-1.74119 0,-1.40953 0,1.40953 -3.60342,1.74119 0,0 c -0.40038,2.07285 -0.40038,3.89695 -0.1001,5.47231 3.10295,5.05774 7.80745,8.70595 14.11347,10.8617 0,0 0,0 0.10009,0 0,0 0,0 0.1001,0.0829 2.80268,-0.0829 5.50526,-0.0829 7.90755,0.0829 3.30315,0.16582 6.30603,0.49748 8.9085,0.91205 0,0 0,0 0.10009,0 2.60249,0.41457 4.8046,0.99496 6.80651,1.74119 3.50335,1.32662 6.40611,2.81907 8.60822,4.47734 1.10105,0.82914 2.00191,1.74118 2.80266,2.65324 2.4023,3.23364 2.5024,5.88688 0.1001,7.95971 -0.20019,0.0829 -0.30027,0.16583 -0.40037,0.24874 -1.40134,0.91206 -3.70354,1.57537 -7.20688,1.57537 -6.30603,0 -11.51099,-0.66331 -15.41472,-1.90702 -0.50048,-0.16583 -1.10105,-0.24873 -1.70161,-0.41457 -2.70259,-0.6633 -6.00575,-0.91205 -9.70929,-0.82914 -1.10104,0.0829 -2.40228,0.16584 -3.60343,0.24875 -1.80172,1.65827 -1.70164,3.31655 0.10009,4.97482 -2.102,3.23364 -6.20593,4.14569 -12.21166,2.57033 2.2021,3.15072 4.90468,4.64316 8.30793,4.47734 3.00287,-0.33165 6.20593,-1.2437 9.20879,-3.06782 0.2002,-0.0829 0.40038,-0.16583 0.60057,-0.24873 -0.20019,0.0829 -0.40037,0.16583 -0.40037,0.41457 -3.10296,2.57033 -5.10488,4.97482 -6.00574,7.04767 0,0 0,0 0,0.0829 -0.10008,0 -0.10008,0 -0.10008,0.0829 -0.4004,1.07788 -0.60058,2.07283 -0.3003,2.98488 0.3003,-0.99495 0.90086,-1.907 1.80172,-2.73615 2.60248,-2.40449 7.30698,-3.97986 14.11347,-4.56025 -0.30028,2.23867 -2.60247,4.56025 -6.70641,6.96476 8.00765,-0.91205 13.41282,-3.23364 16.31559,-6.79894 0.70067,3.5653 3.00287,5.38939 7.00669,5.63815 -1.30124,-2.65325 -0.90086,-4.89192 1.10105,-6.5502 2.90276,4.56026 7.80744,7.37932 14.91324,8.20846 -3.60345,-2.40449 -5.30507,-5.55522 -5.00478,-9.53507 3.10396,2.48741 5.70543,3.56529 7.90755,3.39946 -0.40039,-3.39946 0.90085,-6.46728 3.80362,-9.20342 1.00092,3.15071 5.20497,4.97482 12.61307,5.30647 -5.50527,-3.97985 -7.90756,-8.04263 -7.6083,-12.18831 0.4004,-4.2286 1.20114,-7.46224 2.30218,-9.78382 3.00289,0.33164 5.00476,2.32158 6.20601,6.21852 0.80072,-6.79892 -2.40133,-11.27627 -9.70934,-13.51493 2.10303,0.41457 4.20403,0.74622 6.20591,0.74622 1.30126,0 2.50239,0 3.80364,-0.16583 4.20403,-0.49749 6.50621,-3.48237 6.50621,-8.95468 0,-1.07788 0,-2.07284 -0.3003,-2.90198 0,-0.0829 0,-0.0829 0,-0.0829 -0.70063,-2.48742 -2.50238,-4.14569 -5.30499,-5.05775 -0.1001,-0.0829 -0.3003,-0.0829 -0.40041,-0.0829 0,-0.0829 -0.19924,-0.0829 -0.19924,-0.0829 -0.60148,-0.16582 -1.102,-0.24874 -1.80273,-0.33165 -0.50042,-0.0829 -1.10104,-0.0829 -1.7006,-0.16582 -3.50331,0.0829 -5.9056,0.82913 -7.1078,2.48741 1.20115,-1.65828 3.60449,-2.40451 7.1078,-2.48741 0.60061,0.0829 1.20018,0.0829 1.7006,0.16582 0.70073,0.0829 1.20125,0.16583 1.80273,0.33165 0,0 0.19924,0 0.19924,0.0829 0.10107,0 0.30128,0 0.40041,0.0829 2.80261,0.91206 4.60436,2.57033 5.30499,5.05775 0,0 0,0 0,0.0829 0.3003,0.82914 0.3003,1.8241 0.3003,2.90198 0,5.47231 -2.30218,8.45719 -6.50621,8.95468 -1.30125,0.16583 -2.50238,0.16583 -3.80364,0.16583 -2.00188,0 -4.10384,-0.33165 -6.20591,-0.74622 7.30801,2.23866 10.51006,6.71601 9.70934,13.51493 -1.20125,-3.89694 -3.20312,-5.88688 -6.20601,-6.21852 -1.10104,2.32158 -1.90082,5.55522 -2.30218,9.78382 -0.30031,4.14568 2.10303,8.20846 7.6083,12.18831 -7.40714,-0.33165 -11.61215,-2.15576 -12.61307,-5.30647 -2.90175,2.73614 -4.20401,5.80396 -3.80362,9.20342 -2.20212,0.16583 -4.80459,-0.91205 -7.90755,-3.39946 -0.30029,3.97985 1.40133,7.13058 5.00478,9.53507 -7.10678,-0.82914 -12.01147,-3.6482 -14.91324,-8.20846 -2.00191,1.65828 -2.40229,3.89695 -1.10105,6.5502 -4.00382,-0.24876 -6.30602,-2.07285 -7.00669,-5.63815 -2.90277,3.5653 -8.30794,5.88689 -16.31559,6.79894 4.10394,-2.40451 6.40613,-4.72609 6.70641,-6.96476 -6.80649,0.58039 -11.51099,2.15576 -14.11347,4.56025 2.4023,1.07789 3.70353,2.23867 3.90373,3.39947 0.20019,1.40953 -0.60057,2.23867 -2.3022,2.57033 -1.40133,-0.41457 -2.80269,-0.74623 -4.20402,-0.99497 -5.10486,-0.99498 -10.10965,-1.07788 -15.11442,-0.41457 -0.20019,0 -0.30028,0 -0.40039,0.0829 -0.40038,0 -0.80076,0 -1.10103,0.0829 -4.9047,-1.65828 -7.30699,-4.47734 -7.60727,-8.45721 -4.20401,1.57537 -6.20592,3.89695 -5.60536,7.04767 2.70258,4.97483 7.80745,7.46225 15.51482,7.71098 0.10009,0 0.30028,0 0.50046,0 -0.20018,0 -0.40037,0 -0.50046,0 -10.30985,1.40954 -16.71596,5.14066 -19.21834,11.19335 -2.90279,3.97986 -7.10679,3.5653 -12.51196,-1.24369 0.30029,0.66331 0.80077,1.40952 1.20115,1.98992 1.40133,2.15576 3.00287,4.06277 4.70448,5.80396 0,0 0,0 0.1001,0 2.30219,2.23867 4.80459,4.06277 7.70736,5.63813 -0.1001,-3.0678 1.10106,-5.4723 3.60345,-7.2964 0.50046,-0.41457 1.00094,-0.74623 1.70162,-1.07789 -0.70068,0.33166 -1.20116,0.66332 -1.70162,1.07789 -2.50239,1.8241 -3.70355,4.2286 -3.60345,7.2964 -0.30029,3.23364 -2.0019,5.63815 -5.20497,7.29641 -3.20306,1.7412 -5.90564,1.57537 -8.20783,-0.24874 -0.30029,-0.24874 -0.50049,-0.49748 -0.80077,-0.66331 -0.70067,-0.82914 -0.90086,-1.74118 -0.30028,-2.81907 l -2.80269,-0.82913 c -0.70065,0.6633 -1.20115,1.49245 -1.60152,2.48742 -0.3003,1.57535 -0.3003,2.98489 0,4.14567 0.50048,1.82411 1.70164,3.15073 3.50334,4.22861 0.70067,0.33165 1.50143,0.66331 2.5024,0.99496 1.20114,0.24873 2.40229,0.5804 3.50334,0.74622 0.20019,0.0829 0.50047,0.0829 0.70067,0.16501 0.50048,0.0838 1.10106,0.0838 1.70162,0.16583 1.30126,0.0837 2.60248,0.0837 3.90373,-0.0829 0.90086,-0.16581 1.90183,-0.33166 2.90277,-0.5804 0.20019,-0.0829 0.40039,-0.16583 0.60057,-0.16583 0.50049,-0.24873 0.90087,-0.49747 1.50145,-0.6633 1.20114,-0.5804 2.50238,-1.32663 3.60344,-2.23868 1.60152,-1.32661 2.90276,-2.90198 4.10391,-4.8919 1.60152,-2.81907 3.60344,-4.64318 6.10584,-5.47231 -2.5024,0.82913 -4.50432,2.65324 -6.10584,5.47231 -1.20115,1.98992 -2.50239,3.56529 -4.10391,4.8919 -1.10106,0.91288 -2.4023,1.65828 -3.60344,2.23868 -0.60058,0.16583 -1.00096,0.41457 -1.50145,0.6633 -0.20018,0 -0.40038,0.0838 -0.60057,0.16583 l -0.20019,0.24874 c -0.90085,0.33166 -1.80172,0.5804 -2.60249,0.74623 -0.20018,0.0829 -0.40038,0.0829 -0.40038,0.0829 -1.30125,0.0838 -2.50239,0 -3.60344,-0.41456 -0.60056,-0.0829 -1.20114,-0.0829 -1.70162,-0.16583 -0.2002,-0.0829 -0.50048,-0.0829 -0.70067,-0.16501 0.1001,0.0829 0.1001,0.24876 0.20019,0.33084 0,0.16582 0.2002,0.41456 0.30028,0.58039 0,0.0829 0.1001,0.24874 0.2002,0.33166 0,0.0829 0,0.16499 0.1001,0.24874 1.70161,2.40367 4.10391,3.89694 7.10676,4.4765 1.90183,-1.15995 3.80364,-2.23783 6.00575,-3.15071 1.80173,-0.82914 3.80364,-1.40954 5.90563,-1.9891 6.20593,-1.40953 10.10965,-4.31151 11.51101,-8.78968 -1.40136,4.47732 -5.30508,7.37931 -11.51101,8.78968 -2.10199,0.57956 -4.1039,1.15996 -5.90563,1.9891 -2.20211,0.91288 -4.10392,1.98993 -6.00575,3.15071 -2.20209,1.49329 -4.20398,3.23365 -6.1058,5.22441 -0.70067,0.74539 -1.30126,1.49244 -1.90182,2.23783 -1.20116,2.40449 -0.70067,4.39526 1.40133,5.72105 2.80267,-2.73616 6.10584,-4.72608 10.00957,-5.88688 2.10199,-0.66414 4.4042,-1.16078 6.80649,-1.40953 l 0.1001,0 c 4.5043,0.0829 8.40802,-0.66331 11.61107,-2.07284 l 7.70736,-4.47734 c -0.60057,1.32745 -1.20114,2.48741 -1.50143,3.64821 -0.10009,0.0829 -0.10009,0.0829 -0.10009,0.0829 -1.40135,4.06277 -1.20115,7.29641 0.50047,9.86673 3.20306,4.06195 7.50716,6.46729 12.81222,7.46224 0,0 0,0 -0.10009,-0.0837 -0.80077,-0.6633 -1.60153,-1.40869 -2.2021,-2.07284 -0.1001,-0.0829 -0.30028,-0.24874 -0.30028,-0.33082 -1.70164,-1.90701 -2.80268,-4.06278 -3.30315,-6.30228 0.80075,-4.64317 4.5043,-7.8768 10.91041,-9.8659 0.30029,-0.0838 0.60058,-0.16582 0.80077,-0.24875 -0.20019,0.0829 -0.50048,0.165 -0.80077,0.24875 -0.80077,0.58038 -1.50143,1.15996 -2.2021,1.8241 -3.70355,3.39946 -4.90468,6.7981 -3.60344,10.1984 0.1001,0.16583 0.1001,0.24873 0.20019,0.49746 0.30029,0.66332 0.70066,1.24372 1.20114,1.82411 1.50144,1.57536 3.60344,2.15576 6.50622,1.82411 -3.80364,-3.89695 -3.80364,-7.54598 0.2002,-11.11045 0.70066,-0.6633 1.40131,-1.32662 2.20208,-1.8241 2.00191,-1.32662 4.30411,-2.23784 7.0067,-2.81824 0.60058,2.65325 0.1001,5.30565 -1.60153,7.79307 -0.80075,1.0787 -1.70162,2.15658 -2.90277,3.15155 1.70162,-0.41457 3.40325,-0.91289 5.00478,-1.49327 6.50621,-2.40368 11.51099,-6.1348 15.21452,-11.19337 0.1001,-0.16499 0.20019,-0.24874 0.20019,-0.41457 -0.10009,0.0837 -0.30029,0.0837 -0.30029,0.16583 -0.1001,0 -0.1001,0 -0.1001,0 -2.90277,0.74623 -5.70544,1.07788 -8.50811,0.74623 l -0.1001,0 c 0,0 0,0 0.1001,0 l 0,0 c 1.80171,-1.1608 3.30313,-2.4045 4.5043,-3.73111 0.20019,-0.16583 0.30027,-0.33166 0.50048,-0.49832 0.60056,-0.74539 1.10104,-1.49244 1.50144,-2.23785 0.80076,-1.40953 1.30123,-2.90197 1.50142,-4.47734 -0.20019,1.57537 -0.70066,3.06781 -1.50142,4.47734 -0.4004,0.74541 -0.90088,1.49246 -1.50144,2.23785 -0.20021,0.16584 -0.30029,0.33165 -0.50048,0.49832 -1.20117,1.32661 -2.70259,2.57031 -4.5043,3.73111 l 0,0 c -0.1001,0 -0.1001,0 -0.1001,0 l 0.1001,0 c 2.80267,0.33082 5.60534,0 8.50811,-0.74623 0,0 0,0 0.1001,0 0,-0.0829 0.2002,-0.0829 0.30029,-0.16583 1.80172,-0.57956 3.60345,-1.32661 5.40416,-2.32158 -0.19919,-1.49244 -0.30027,-2.90198 -0.1001,-4.39443 0.30029,-3.6482 2.00191,-6.79892 5.20497,-9.53507 -3.20306,2.73615 -4.90468,5.88687 -5.20497,9.53507 -0.20017,1.49245 -0.10009,2.90199 0.1001,4.39443 1.40134,3.48238 3.50335,6.13562 6.30702,8.04263 2.70162,1.90702 5.90464,2.98489 9.90847,3.31655 3.50334,0.16583 6.60729,-0.33166 9.20882,-1.49245 0.10002,-0.0837 0.30022,-0.16581 0.50042,-0.24874 l 0.10012,0 c 0,-0.0837 0.20019,-0.16582 0.30126,-0.24956 0.19924,-0.0829 0.60062,-0.24875 0.69965,-0.33083 -0.3002,-0.0837 -0.69965,-0.16583 -1.10103,-0.24874 -4.60436,-0.66413 -8.40799,-2.48741 -11.8113,-5.63896 -1.90177,-2.07284 -1.70158,-4.14569 0.39944,-6.30145 l 0,0 0,0 c 1.20115,-1.16079 2.10304,-2.4045 3.00282,-3.73111 1.3023,-2.15577 2.20217,-4.47734 2.60354,-6.96475 -0.4004,2.48741 -1.30124,4.80898 -2.60354,6.96475 -0.89978,1.32661 -1.80167,2.57032 -3.00282,3.73111 4.90468,-0.91206 8.50811,-2.57033 11.01049,-4.89191 0.20021,-0.165 0.40041,-0.41456 0.60157,-0.57957 0,0 0,0 0.10011,-0.0837 0.10107,-0.16583 0.30031,-0.33081 0.40042,-0.49747 0,0 0,0 0.1001,0 l -0.1001,0 c 0.1001,-0.0838 0.1001,-0.0838 0.20011,-0.16584 1.70069,-1.98992 2.70164,-4.06277 3.103,-6.38435 0.1001,-0.33167 0.1001,-0.5804 0.1001,-0.91205 0,-0.16583 0,-0.24875 0,-0.41458 l 0,0 c 0,-0.0829 0,-0.24873 0,-0.33165 0,-0.66331 0,-1.32662 -0.1001,-1.98993 -0.1001,0 -0.1001,0 0,0 -0.2002,-0.99497 -0.40042,-1.98992 -0.90083,-2.90199 0.50041,0.91207 0.70063,1.90702 0.90083,2.90199 -0.1001,0 -0.1001,0 0,0 0.1001,0.66331 0.1001,1.32662 0.1001,1.98993 0,0.0829 0,0.24874 0,0.33165 l 0,0 c 0,0.16583 0,0.24875 0,0.41458 0,0.33165 0,0.58038 -0.1001,0.91205 -0.40042,2.32158 -1.40135,4.39443 -3.103,6.38435 -0.10106,0.0829 -0.10106,0.0829 -0.10106,0.16584 -0.1001,0 -0.1001,0 -0.1001,0 -0.10106,0.16581 -0.30032,0.33081 -0.40041,0.49747 -0.10003,0.0837 -0.10003,0.0837 -0.10003,0.0837 0.10003,0.0829 0.20012,0.0829 0.30023,0.0829 0.30031,0.0829 0.6006,0.24874 0.90091,0.24874 1.70062,0.49832 3.60345,0.82915 5.50521,0.99497 3.80364,0.24874 7.7064,-0.16582 11.91036,-1.40954 4.30413,-0.91205 7.50724,-2.73615 9.30891,-5.3894 -3.00289,1.32663 -6.60632,1.8241 -10.61016,1.49246 -3.50331,-0.33166 -6.10581,-1.65829 -7.90748,-4.14569 l 0.2002,-0.0829 0.10106,0 -0.0981,0 c 0,0 0,0 -0.2002,0.0829 l 3.80458,-0.66332 -3.30407,0.58041 -0.19925,-0.58041 c 5.40422,-6.96473 9.40798,-6.716 12.11161,0.58041 2.6025,-4.14569 2.10197,-8.37429 -1.60155,-12.6858 6.00571,3.23363 12.71108,4.47734 20.3194,3.73111 5.20498,-1.32662 8.6082,-3.48238 10.30985,-6.21853 -2.20215,1.32663 -5.70548,1.8241 -10.61015,1.57536 -6.00572,-0.49748 -11.31175,-2.07284 -15.6159,-4.8919 -0.20021,0 -0.30031,-0.0829 -0.30031,-0.16583 -3.20302,-2.07286 -5.90561,-4.64318 -8.20779,-7.79388 13.21257,-5.14066 16.81598,-3.4824 10.91039,4.8919 0,0.0829 0,0.0829 -0.10107,0.16582 6.20592,-2.73614 9.40893,-5.38939 9.40893,-7.95972 0,-2.57032 -3.40323,-6.21853 -10.20975,-10.77878 -3.70353,-0.82914 -5.80549,-2.57033 -6.50613,-5.30648 0.70064,2.73615 2.8026,4.47734 6.50613,5.30648 0.60158,0.0829 1.10209,0.24874 1.70165,0.24874 5.30509,0 9.10871,-1.65827 11.4109,-4.97483 -2.00187,0.82914 -3.80459,1.49246 -5.4052,1.74119 -0.10008,0 -0.10008,0 -0.10008,0.0829 0,0 -0.10108,0 -0.20013,0 -0.2002,0.0829 -0.4004,0.0829 -0.4004,0.16583 -1.70166,0.16583 -3.20311,0.0829 -4.4032,-0.24874 0,-0.0829 -0.10116,-0.0829 -0.20021,-0.0829 -3.60448,-1.65828 -6.00572,-4.14569 -6.80651,-7.71099 2.7016,-2.98487 6.40514,-1.40952 10.9094,4.809 2.9028,-5.30647 1.30125,-9.36925 -4.90362,-12.43705 -3.60448,-1.74118 -6.40611,-3.48238 -8.50819,-5.30648 l -0.2002,-0.0829 c -0.20012,-0.16582 -0.30022,-0.33165 -0.50042,-0.49748 -0.60158,-0.58039 -1.10209,-1.16079 -1.60252,-1.82409 0.50043,0.6633 1.00094,1.2437 1.60252,1.82409 0.2002,0.16583 0.3003,0.33166 0.50042,0.49748 l 0.2002,0.0829 c 1.7006,1.40954 3.70258,2.32158 6.00581,2.65323 0.69966,0.16584 1.50136,0.24875 2.20102,0.16584 2.30323,0 4.20404,-0.82914 5.80656,-2.3216 2.00197,-2.07283 2.50238,-4.14568 1.40038,-6.38434 -1.30124,2.57032 -3.50341,3.89695 -6.40515,3.97985 -2.30315,0.0829 -4.00384,-0.49747 -5.40518,-1.74119 -0.40033,-0.49747 -0.80074,-0.99497 -1.10103,-1.49244 -1.50146,-2.32159 -2.70261,-5.63813 -3.80461,-10.11548 -0.60061,-2.65324 -2.70163,-5.05774 -6.20494,-7.29641 5.40411,-0.58039 8.30796,-2.07284 8.70732,-4.56025 -2.60249,1.07788 -5.20401,1.49244 -7.90651,0.99496 -2.20217,-3.48238 -5.70549,-6.21854 -10.61121,-8.04263 -2.70154,-0.74622 -5.60532,-0.91205 -8.70725,-0.49749 -0.50052,0.0829 -1.1021,0.24874 -1.60252,0.24874 0.50042,0 1.102,-0.16581 1.60252,-0.24874 32.75773,0.25132 -1.73264,-8.74787 -14.61398,-5.13898 z m 14.41376,19.56764 c -1.60251,0.66331 -3.10395,0.91204 -4.20404,0.82914 1.10105,0.0829 2.60249,-0.16583 4.20404,-0.82914 0.20022,-0.0829 0.30031,-0.16583 0.39937,-0.16583 1.50144,-0.66331 3.00289,-1.57536 4.50434,-2.81906 -1.50145,1.2437 -3.0029,2.15575 -4.50434,2.81906 1.50144,0.82914 2.70259,1.74118 3.90373,3.0678 -0.40042,1.90702 -1.20114,3.15072 -2.7026,4.06278 1.50146,-0.91206 2.30218,-2.15576 2.7026,-4.06278 -1.20114,-1.32662 -2.40229,-2.23866 -3.90373,-3.0678 -0.0991,0 -0.19915,0.0829 -0.39937,0.16583 z m -36.0344,-7.29641 c 1.50143,0 2.80268,0.16583 4.20401,0.5804 0.20019,0.0829 0.5005,0.24874 0.80077,0.33165 3.60344,1.8241 6.7064,3.89694 9.30889,6.21853 l 3.90371,-1.24371 -2.94623,0.45059 -8.86502,1.62226 c -0.40039,0 -0.70068,0 -1.00097,0.0829 -1.00096,0.0829 -1.90182,0.0829 -2.80267,0 -0.50046,-0.0829 -1.10106,-0.0829 -1.60153,-0.0829 -2.00192,-0.74624 -3.10296,-1.90701 -3.30315,-3.5653 -0.30029,-1.57536 0.50047,-3.0678 2.30219,-4.39442 -0.30028,0 -0.80076,0 -1.20114,0 -0.90086,0.0829 -1.90181,0.16583 -2.90278,0.41457 0,-1.65828 1.10105,-2.9849 3.50336,-3.89695 -2.40231,0.91205 -3.50336,2.23867 -3.50336,3.89695 1.00097,-0.24874 2.00192,-0.33166 2.90278,-0.41457 0.40038,0 0.90086,0 1.20114,0 z m 20.91998,34.82376 c -0.60057,-1.98992 -1.50143,-3.97985 -2.80269,-6.0527 1.30126,2.07285 2.20212,4.06278 2.80269,6.0527 0.50047,3.15072 -1.80173,6.05271 -6.9056,8.54012 5.10387,-2.48741 7.40607,-5.3894 6.9056,-8.54012 z m -8.00765,-12.1883 c -2.60248,-2.23869 -5.70544,-3.81404 -9.20879,-4.97484 -3.00287,-0.82914 -6.00573,-0.99496 -9.20879,-0.58039 3.20306,-0.41457 6.20592,-0.24875 9.20879,0.58039 3.50335,1.1608 6.60631,2.73615 9.20879,4.97484 z"/>
      <path style="fill:#fcef3c;fill-opacity:1;stroke:#000000;stroke-width:1.92212415;stroke-miterlimit:4;stroke-opacity:1;stroke-dasharray:none" id="path3713" d="m 293.52243,237.6696 c 0.3003,-0.0829 0.60057,-0.0829 1.00097,-0.0829 l 7.4288,-0.82912 c -2.60248,-2.32159 -5.22671,-4.39443 -8.83014,-6.21854 -8.19925,-4.52629 -12.44843,8.26057 0.40037,7.13058 z"/>
      <path sodipodi:nodetypes="ccccc" style="fill:#fcef3c;fill-opacity:1;fill-rule:evenodd;stroke:#000000;stroke-width:1.57192576;stroke-linecap:butt;stroke-linejoin:miter;stroke-miterlimit:4;stroke-opacity:1;stroke-dasharray:none" id="path8056" d="m 195.29989,253.98682 -2.79722,-3.33804 -2.74839,-3.33084 c 46.36182,-37.20641 78.84139,-41.8392 139.32821,-48.82646 -81.02485,19.97535 -88.85499,21.9857 -133.7826,55.49534 z"/>
      <path style="fill:#fcef3c;fill-opacity:1;fill-rule:evenodd;stroke:#000000;stroke-width:1.57192576;stroke-linecap:butt;stroke-linejoin:round;stroke-miterlimit:4;stroke-opacity:1;stroke-dasharray:none" id="path9029" d="m 202.24895,279.03237 c -3.62599,-0.45566 -5.27982,-4.34228 -3.1793,-6.83245 1.01263,-0.79285 1.09365,-1.51817 0.74648,-2.24944 -9.11634,-8.89939 -16.83375,-18.6787 -23.87107,-28.83169 -0.0105,-0.0132 -0.023,-0.0276 -0.0336,-0.0407 -0.81306,-1.00745 -1.83272,-1.63183 -3.50324,-0.87414 -3.44788,0.85794 -7.14331,-1.73567 -6.43073,-4.80942 0.3597,-1.45416 1.59706,-2.60535 2.9561,-3.46085 2.09935,-2.37725 5.98174,-2.05025 7.63106,0.51764 10.65334,13.10696 21.74823,25.94434 32.43388,39.0321 2.27734,2.18886 1.38465,5.39738 -1.93839,6.29221 -1.39811,0.80824 -3.0882,1.45414 -4.81119,1.25675 z"/>
      <path style="fill:#fcef3c;fill-opacity:1;fill-rule:evenodd;stroke:#000000;stroke-width:1.57192576;stroke-linecap:butt;stroke-linejoin:round;stroke-miterlimit:4;stroke-opacity:1;stroke-dasharray:none" id="path10000" d="m 189.38435,259.16326 c 0,0 -18.30937,11.69901 -26.68451,17.05007 -4.78855,3.05949 -9.31802,0.73667 -11.17969,-1.75083 -1.07607,-4.10475 3.15553,-6.01864 6.58018,-7.95037 l 24.29779,-15.4203 6.98623,8.07143 z"/>
      <path style="fill:#fcef3c;fill-opacity:1;stroke:#000000;stroke-width:1.92212415;stroke-miterlimit:4;stroke-opacity:1;stroke-dasharray:none;display:inline" id="path3721" d="m 173.72564,249.09108 c -9.43387,-4.83636 -27.60192,4.40555 -19.60966,12.85907 4.22752,-5.39292 9.22413,-5.96071 14.38336,-3.2262 7.02973,-0.33008 10.76044,-7.63103 5.2263,-9.63287 z"/>
      <path style="fill:#fcef3c;fill-opacity:1;stroke:#000000;stroke-width:1.92212415;stroke-miterlimit:4;stroke-opacity:1;stroke-dasharray:none;display:inline" id="path3727" d="m 155.58771,258.81828 c 11.62492,-2.31165 18.42314,8.78748 12.86019,15.13722 -1.23414,-4.98588 -5.45504,-7.89478 -12.53268,-6.16988 -5.22888,0.5975 -5.13189,-6.68664 -0.32751,-8.96734 z"/>
      <path style="fill:#fcef3c;fill-opacity:1;stroke:#000000;stroke-width:1.92212415;stroke-miterlimit:4;stroke-opacity:1;stroke-dasharray:none;display:inline" id="path3729" d="m 150.6409,265.13429 c 11.08173,-1.71645 22.54087,11.69274 10.91505,16.45591 0.41884,-4.16305 -5.54951,-11.33603 -11.00051,-7.01344 -7.16289,-1.84306 -8.00029,-8.27047 0.0855,-9.44247 z"/>
      <path style="fill:#fcef3c;fill-opacity:1;stroke:#000000;stroke-width:1.92212415;stroke-miterlimit:4;stroke-opacity:1;stroke-dasharray:none;display:inline" id="path3723" d="m 168.62379,258.17597 c -2.09891,1.7133 -2.34821,2.7587 -1.13721,4.59027 2.37328,1.62271 5.69827,2.64422 10.00963,2.99033 3.47328,2.61961 4.75622,5.14036 3.71331,7.61302 l -0.0347,0.0742 c 6.63717,0.3987 23.39689,9.21552 16.02813,-6.30547 -3.10785,-4.1082 -8.94246,-8.43731 -13.7042,-12.08024 -2.10539,-1.478 -3.69716,-3.57696 -4.77526,-6.29692 -1.57583,-0.69628 -3.56449,-0.74813 -5.55939,-0.30766 -1.21507,4.64333 3.64466,6.01784 -4.54035,9.72243 z"/>
      <path style="fill:#fcef3c;fill-opacity:1;fill-rule:nonzero;stroke:#000000;stroke-width:1.57192552;stroke-linecap:round;stroke-linejoin:miter;stroke-miterlimit:4;stroke-opacity:1;stroke-dasharray:none;stroke-dashoffset:0" id="path3605" d="m 157.50379,279.30586 c 0.80123,-3.95728 -2.30292,-7.72016 -6.9318,-8.40281 -4.62887,-0.68264 -9.02802,1.9737 -9.82361,5.93181 -0.80123,3.95727 2.30292,7.72016 6.9318,8.4028 4.62887,0.68264 9.02802,-1.97369 9.82361,-5.9318 z"/>
    </g>
    <g transform="matrix(0.1805,0,0,0.1805,234.7926,6.319108)" id="g1878" style="fill:#e20909;fill-opacity:1">
      <path d="m 407.02914,608.69929 c 1.42457,-61.95601 16.75116,-119.53947 45.28957,-174.1086 74.71442,-157.1858 302.92034,-153.43174 252.61522,38.81131 -18.53686,70.83937 -81.50861,112.47386 -156.31886,119.61501 5.39959,-18.66537 35.10029,-84.65245 11.12447,-97.56156 -38.33816,1.4484 -85.94434,67.7051 -97.39282,99.30072 -1.6527,4.5361 -1.19041,9.77801 -3.03584,14.24007" style="fill:#e20909;fill-opacity:1;fill-rule:evenodd;stroke:#000000;stroke-width:6;stroke-linecap:butt;stroke-linejoin:miter;stroke-miterlimit:4;stroke-opacity:1;stroke-dasharray:none;display:inline" id="path1876" sodipodi:nodetypes="ccscscc"/>
      <g transform="translate(-38.53215,-48.5769)" style="fill:#e20909;fill-opacity:1;display:inline" id="g5647">
        <g transform="translate(0,4)" style="fill:#e20909;fill-opacity:1;stroke:#000000;stroke-width:6;stroke-miterlimit:4;stroke-opacity:1;stroke-dasharray:none" id="g13018">
          <path d="M 350.52292,657.37224 C 349.09835,595.41623 333.77176,537.83277 305.23335,483.26364 230.51893,326.07784 2.3130139,329.8319 52.618133,522.07495 71.154997,592.91432 134.12674,634.54881 208.93699,641.68996 203.5374,623.02459 173.8367,557.03751 197.81252,544.1284 c 38.33816,1.4484 85.94434,67.7051 97.39282,99.30072 1.6527,4.5361 1.19041,9.77801 3.03584,14.24007" style="fill:#e20909;fill-opacity:1;fill-rule:evenodd;stroke:#000000;stroke-width:6;stroke-linecap:butt;stroke-linejoin:miter;stroke-miterlimit:4;stroke-opacity:1;stroke-dasharray:none" id="path1902" sodipodi:nodetypes="ccscscc"/>
          <path d="m 393.6259,57.12017 c -78.7143,84.84944 -131.56461,182.96158 -108.78125,298.03125 12.56957,63.48391 43.04182,122.27973 64.53125,183.4375 13.43648,38.36985 16.87223,78.45173 15.28125,118.78125 l 66.78125,0 c -3.19651,-40.62617 3.80671,-79.99824 15.28125,-118.78125 20.47419,-61.5383 51.62579,-119.90553 64.53125,-183.4375 C 535.37892,236.37223 478.74399,146.7919 402.8134,57.49517 l -4.64043,-5.918268 -4.54707,5.543268 z" style="fill:#e20909;fill-opacity:1;fill-rule:nonzero;stroke:#000000;stroke-width:6;stroke-linecap:butt;stroke-linejoin:miter;stroke-miterlimit:4;stroke-opacity:1;stroke-dasharray:none" id="path3734" sodipodi:nodetypes="csccccsccc"/>
          <path d="m 331.34465,704.40142 c -13.96166,39.13002 -70.88818,110.79207 -101.125,131.21875 -7.84217,5.29785 37.48637,-3.05157 57.78125,-7.5 26.61901,-5.83464 61.21745,-34.19759 60.40625,-24.1875 -0.0756,45.83826 12.81104,122.32424 46.40625,157.46875 l 3.18208,3.3876 3.28667,-3.3876 c 33.57769,-39.17095 46.23761,-108.04198 46.40625,-157.46875 -0.8112,-10.01009 33.78725,18.35286 60.40625,24.1875 20.29488,4.44843 65.62342,12.79785 57.78125,7.5 -30.23682,-20.42668 -87.13207,-92.08873 -101.09375,-131.21875 l -133.4375,0 z" style="fill:#e20909;fill-opacity:1;fill-rule:evenodd;stroke:#000000;stroke-width:6;stroke-linecap:butt;stroke-linejoin:miter;stroke-miterlimit:4;stroke-opacity:1;stroke-dasharray:none" id="path6395" sodipodi:nodetypes="cssscccssscc"/>
          <rect width="317.88773" height="51.503345" x="239.3521" y="655.37946" style="fill:#e20909;fill-opacity:1;stroke:#000000;stroke-width:6;stroke-miterlimit:4;stroke-opacity:1;stroke-dasharray:none" id="rect4623"/>
        </g>
      </g>
    </g>
  </g>
  <g inkscape:groupmode="layer" id="layer3" inkscape:label="Reflet final" sodipodi:insensitive="true">
    <path id="path2875" style="fill:url(#radialGradient11919);fill-opacity:1;fill-rule:evenodd;stroke:none;stroke-width:3.00000024;stroke-linecap:butt;stroke-linejoin:miter;stroke-miterlimit:4;stroke-dasharray:none;stroke-opacity:1" d="M 1.5,1.49974 L 1.5,518.99107 C 1.5,557.49556 32.7031,588.7456 71.15,588.7456 C 109.5968,588.7456 191.9032,588.7456 230.35,588.7456 C 268.79691,588.7455 300.00003,619.99554 300.00003,658.5 C 300.00003,619.99554 331.20317,588.7456 369.64997,588.7456 C 408.09687,588.7455 490.40327,588.7456 528.85007,588.7456 C 567.29687,588.7456 598.50007,557.49556 598.50007,518.99107 L 598.50007,1.49974 L 1.5,1.49974 z "/>
  </g>
  <g inkscape:groupmode="layer" id="layer4" inkscape:label="Contour final" sodipodi:insensitive="true">
    <path id="path1572" style="fill:none;fill-opacity:1;fill-rule:nonzero;stroke:black;stroke-width:3.00000191;stroke-linecap:round;stroke-linejoin:round;stroke-miterlimit:4;stroke-dasharray:none;stroke-dashoffset:0;stroke-opacity:1" d="M 300.00003,658.5 C 300.00003,619.9959 331.20322,588.74628 369.65003,588.74628 C 408.09684,588.74628 490.40321,588.74628 528.85001,588.74628 C 567.29681,588.74628 598.50011,557.49666 598.50011,518.99266 L 598.50011,1.4996809 L 1.5000099,1.4997008 L 1.5,518.99266 C 1.5,557.49666 32.70321,588.74628 71.150019,588.74628 C 109.59684,588.74628 191.90322,588.74628 230.35003,588.74628 C 268.79684,588.74628 300.00003,619.9959 300.00003,658.5 z " sodipodi:nodetypes="cssccccssc"/>
  </g>
</svg>