<?xml version="1.0" encoding="UTF-8" standalone="no"?>
<svg xmlns:dc="http://purl.org/dc/elements/1.1/" xmlns:cc="http://creativecommons.org/ns#" xmlns:rdf="http://www.w3.org/1999/02/22-rdf-syntax-ns#" xmlns:svg="http://www.w3.org/2000/svg" xmlns="http://www.w3.org/2000/svg" xmlns:xlink="http://www.w3.org/1999/xlink" xmlns:sodipodi="http://sodipodi.sourceforge.net/DTD/sodipodi-0.dtd" xmlns:inkscape="http://www.inkscape.org/namespaces/inkscape" height="660" width="600" version="1.0" id="svg2" sodipodi:version="0.32" inkscape:version="0.48.3.1 r9886" sodipodi:docname="Blason_Comte-de-Flandre.svg" inkscape:export-filename="/Users/olivier/Desktop/Blason Rouge/Blason_Vide_3D.png" inkscape:export-xdpi="144" inkscape:export-ydpi="144" inkscape:output_extension="org.inkscape.output.svg.inkscape">
  <metadata id="metadata49">
    <rdf:RDF>
      <cc:Work rdf:about="">
        <dc:format>image/svg+xml</dc:format>
        <dc:type rdf:resource="http://purl.org/dc/dcmitype/StillImage"/>
        <dc:title/>
        <dc:date>30-JUN-2007</dc:date>
        <dc:creator>
          <cc:Agent>
            <dc:title>Franck Hivonnait (Fhiv)</dc:title>
          </cc:Agent>
        </dc:creator>
        <cc:license rdf:resource="http://web.resource.org/cc/PublicDomain"/>
        <dc:language>fr</dc:language>
        <dc:subject>
          <rdf:Bag>
            <rdf:li>blason projet wikipédia flandre</rdf:li>
          </rdf:Bag>
        </dc:subject>
      </cc:Work>
      <cc:License rdf:about="http://web.resource.org/cc/PublicDomain">
        <cc:permits rdf:resource="http://web.resource.org/cc/Reproduction"/>
        <cc:permits rdf:resource="http://web.resource.org/cc/Distribution"/>
        <cc:permits rdf:resource="http://web.resource.org/cc/DerivativeWorks"/>
      </cc:License>
    </rdf:RDF>
  </metadata>
  <sodipodi:namedview inkscape:window-height="962" inkscape:window-width="1280" inkscape:pageshadow="2" inkscape:pageopacity="0.0" guidetolerance="10.0" gridtolerance="10.0" objecttolerance="10.0" borderopacity="1.0" bordercolor="#666666" pagecolor="#ffffff" id="base" showgrid="false" height="660px" inkscape:zoom="1.1378783" inkscape:cx="300" inkscape:cy="329.99986" inkscape:window-x="-4" inkscape:window-y="-4" inkscape:current-layer="layer4" inkscape:window-maximized="0"/>
  <desc id="desc4">Blason du Comté de Flandre</desc>
  <defs id="defs6">
    <linearGradient id="linearGradient2893">
      <stop style="stop-color:white;stop-opacity:0.3137255;" offset="0" id="stop2895"/>
      <stop id="stop2897" offset="0.19" style="stop-color:white;stop-opacity:0.25098041;"/>
      <stop style="stop-color:#6b6b6b;stop-opacity:0.1254902;" offset="0.60000002" id="stop2901"/>
      <stop style="stop-color:black;stop-opacity:0.1254902;" offset="1" id="stop2899"/>
    </linearGradient>
    <linearGradient id="linearGradient2885">
      <stop id="stop2887" offset="0" style="stop-color:white;stop-opacity:1;"/>
      <stop style="stop-color:white;stop-opacity:1;" offset="0.22857143" id="stop2891"/>
      <stop id="stop2889" offset="1" style="stop-color:black;stop-opacity:1;"/>
    </linearGradient>
    <linearGradient id="linearGradient2955">
      <stop id="stop2867" offset="0" style="stop-color:#fd0000;stop-opacity:1;"/>
      <stop style="stop-color:#e77275;stop-opacity:0.65882355;" offset="0.5" id="stop2873"/>
      <stop style="stop-color:black;stop-opacity:0.32291666;" offset="1" id="stop2959"/>
    </linearGradient>
    <radialGradient inkscape:collect="always" xlink:href="#linearGradient2955" id="radialGradient2961" cx="225.52438" cy="218.90099" fx="225.52438" fy="218.90099" r="300" gradientTransform="matrix(-4.167939e-4,2.182867,-1.884232,-3.599562e-4,615.5972,-289.1214)" gradientUnits="userSpaceOnUse"/>
    <polygon id="star" transform="scale(53,53)" points="0,-1 0.58778525,0.80901699 -0.95105652,-0.30901699 0.95105652,-0.30901699 -0.58778525,0.80901699 0,-1 "/>
    <clipPath id="clip">
      <path d="M 0,-200 L 0,600 L 300,600 L 300,-200 L 0,-200 z " id="path10"/>
    </clipPath>
    <radialGradient inkscape:collect="always" xlink:href="#linearGradient2955" id="radialGradient1911" gradientUnits="userSpaceOnUse" gradientTransform="matrix(-4.167939e-4,2.182867,-1.884232,-3.599562e-4,615.5972,-289.1214)" cx="225.52438" cy="218.90099" fx="225.52438" fy="218.90099" r="300"/>
    <radialGradient inkscape:collect="always" xlink:href="#linearGradient2955" id="radialGradient2865" gradientUnits="userSpaceOnUse" gradientTransform="matrix(0,1.748721,-1.593162,-1.049767e-7,551.7876,-191.2898)" cx="225.52438" cy="218.90099" fx="225.52438" fy="218.90099" r="300"/>
    <radialGradient inkscape:collect="always" xlink:href="#linearGradient2955" id="radialGradient2871" gradientUnits="userSpaceOnUse" gradientTransform="matrix(0,1.386237,-1.323286,-5.741131e-8,-158.0823,-109.5408)" cx="225.52438" cy="218.90099" fx="225.52438" fy="218.90099" r="300"/>
    <radialGradient inkscape:collect="always" xlink:href="#linearGradient2893" id="radialGradient3163" gradientUnits="userSpaceOnUse" gradientTransform="matrix(1.353218,0,0,1.348928,-77.62935,-85.74693)" cx="221.44487" cy="226.33101" fx="221.44487" fy="226.33101" r="300"/>
  </defs>
  <g inkscape:groupmode="layer" id="layer3" inkscape:label="Fond écu" style="display:inline" sodipodi:insensitive="true">
    <path id="path2855" style="fill:#fcef3c;fill-opacity:1;fill-rule:evenodd;stroke:none;stroke-width:1px;stroke-linecap:butt;stroke-linejoin:miter;stroke-opacity:1" d="M 300,658.5 C 300,658.5 598.50001,546.17969 598.50001,260.72817 C 598.50001,-24.723354 598.50001,2.1764765 598.50001,2.1764765 L 1.5,2.1764765 L 1.5,260.72817 C 1.5,546.17969 300,658.5 300,658.5 z " sodipodi:nodetypes="cccccc"/>
  </g>
  <g inkscape:groupmode="layer" id="layer4" inkscape:label="Meubles">
    <path d="m 139.87592,158.53775 c -10.00819,7.54498 -24.9878,8.84824 -30.912,1.40509 0,0 10.06222,2.35552 14.61294,-3.09118 6.17576,-7.3917 6.39977,-10.88407 7.30649,-9.27361 l 8.99257,10.9597 z" style="fill:#e20909;fill-opacity:1;fill-rule:evenodd;stroke:#313131;stroke-width:3;stroke-linecap:butt;stroke-linejoin:miter;stroke-miterlimit:4;stroke-opacity:1;stroke-dasharray:none;display:inline" id="path1994" inkscape:connector-curvature="0"/>
    <path d="m 120.76668,126.78273 c -8.76371,-6.84552 -19.33238,-6.06252 -23.60551,5.05831 -1.13187,-0.42446 0.47813,-13.92903 5.33934,-18.82821 4.99859,-5.03764 6.3229,-6.81469 13.76989,-7.02545 7.44697,-0.21076 16.86108,4.21527 16.86108,4.21527 l -12.3648,16.58008 z" style="fill:#e20909;fill-opacity:1;fill-rule:evenodd;stroke:#313131;stroke-width:3;stroke-linecap:butt;stroke-linejoin:miter;stroke-miterlimit:4;stroke-opacity:1;stroke-dasharray:none;display:inline" id="path1996" inkscape:connector-curvature="0"/>
    <path d="m 135.94167,95.87073 c -4.5958,-12.57345 -7.76886,-25.7383 -27.53978,-23.60553 0,0 9.86798,-6.2284 21.35737,-4.49628 14.19716,2.14032 24.6393,19.38189 23.88654,19.67127 l -17.70413,8.43054 z" style="fill:#e20909;fill-opacity:1;fill-rule:evenodd;stroke:#313131;stroke-width:3;stroke-linecap:butt;stroke-linejoin:miter;stroke-miterlimit:4;stroke-opacity:1;stroke-dasharray:none;display:inline" id="path1998" inkscape:connector-curvature="0"/>
    <path d="m 168.53976,88.28324 c 5.98859,-5.72049 5.35051,-18.06767 7.30647,-27.8208 0,0 7.65775,6.67419 9.55462,16.01803 1.89687,9.34387 -1.96714,21.35739 -1.96714,21.35739 l -14.89395,-9.55462 z" style="fill:#e20909;fill-opacity:1;fill-rule:evenodd;stroke:#313131;stroke-width:3;stroke-linecap:butt;stroke-linejoin:miter;stroke-miterlimit:4;stroke-opacity:1;stroke-dasharray:none;display:inline" id="path2000" inkscape:connector-curvature="0"/>
    <path d="m 158.15012,405.57469 c 1.08847,-14.82217 -14.08517,-23.32588 -28.81293,-23.24907 0,0 17.58582,-6.80577 27.62067,-3.17935 10.03485,3.62642 13.71098,9.33936 13.71098,9.33936 l -12.51872,17.08906 z" style="fill:#e20909;fill-opacity:1;fill-rule:evenodd;stroke:#313131;stroke-width:3;stroke-linecap:butt;stroke-linejoin:miter;stroke-miterlimit:4;stroke-opacity:1;stroke-dasharray:none;display:inline" id="path2004" inkscape:connector-curvature="0"/>
    <path d="m 150.59914,427.83013 c -13.06918,-11.426 -21.68466,0.1055 -32.98581,5.1665 0,0 7.35226,-17.4367 16.29419,-22.8516 8.94195,-5.41481 19.47356,1.1923 19.47356,1.1923 l -2.78194,16.4928 z" style="fill:#e20909;fill-opacity:1;fill-rule:evenodd;stroke:#313131;stroke-width:3;stroke-linecap:butt;stroke-linejoin:miter;stroke-miterlimit:4;stroke-opacity:1;stroke-dasharray:none;display:inline" id="path2006" inkscape:connector-curvature="0"/>
    <path d="m 160.53464,447.89983 c -5.28028,2.4592 -9.80135,7.9551 -11.92258,23.0504 0,0 -2.18582,-14.0091 -0.79484,-21.4607 1.39096,-7.4516 6.3587,-8.3458 6.3587,-8.3458 l 6.35872,6.7561 z" style="fill:#e20909;fill-opacity:1;fill-rule:evenodd;stroke:#313131;stroke-width:3;stroke-linecap:butt;stroke-linejoin:miter;stroke-miterlimit:4;stroke-opacity:1;stroke-dasharray:none;display:inline" id="path2008" inkscape:connector-curvature="0"/>
    <path d="m 190.73853,450.28443 c -4.49618,4.5831 -4.90767,10.9169 -1.98711,18.6787 0,0 -7.94838,-10.2336 -9.93548,-15.4994 -1.9871,-5.2658 1.98709,-5.5639 1.98709,-5.5639 l 9.9355,2.3846 z" style="fill:#e20909;fill-opacity:1;fill-rule:evenodd;stroke:#313131;stroke-width:3;stroke-linecap:butt;stroke-linejoin:miter;stroke-miterlimit:4;stroke-opacity:1;stroke-dasharray:none;display:inline" id="path2010" inkscape:connector-curvature="0"/>
    <path d="m 120.59398,221.96685 c -2.45207,-6.44003 -9.97159,-12.10046 -19.27487,-17.48646 0,0 12.86646,1.39097 20.46712,3.9742 7.60065,2.58323 9.93549,6.35871 9.93549,6.35871 l -11.12774,7.15355 z" style="fill:#e20909;fill-opacity:1;fill-rule:evenodd;stroke:#313131;stroke-width:3;stroke-linecap:butt;stroke-linejoin:miter;stroke-miterlimit:4;stroke-opacity:1;stroke-dasharray:none;display:inline" id="path2014" inkscape:connector-curvature="0"/>
    <path d="m 109.86364,245.61331 c -10.2331,-7.0846 -17.93401,1.02389 -26.22968,5.56389 0,0 7.16354,-13.16601 14.5158,-17.83569 7.35225,-4.66967 14.89323,-0.84304 14.89323,-0.84304 l -3.17935,13.11484 z" style="fill:#e20909;fill-opacity:1;fill-rule:evenodd;stroke:#313131;stroke-width:3;stroke-linecap:butt;stroke-linejoin:miter;stroke-miterlimit:4;stroke-opacity:1;stroke-dasharray:none;display:inline" id="path2016" inkscape:connector-curvature="0"/>
    <path d="m 116.81849,269.6572 c -7.21345,0.0691 -14.8911,1.81447 -25.43486,13.90969 0,0 -0.34774,-9.68711 4.96775,-16.2942 5.31549,-6.6071 16.2942,-10.13421 16.2942,-10.13421 l 4.17291,12.51872 z" style="fill:#e20909;fill-opacity:1;fill-rule:evenodd;stroke:#313131;stroke-width:3;stroke-linecap:butt;stroke-linejoin:miter;stroke-miterlimit:4;stroke-opacity:1;stroke-dasharray:none;display:inline" id="path2018" inkscape:connector-curvature="0"/>
    <path d="m 128.34159,279.21938 c -0.56292,3.90795 -4.91742,7.95642 -11.38673,10.38904 0,0 11.48762,0.42255 16.15783,-1.86863 4.6702,-2.29119 3.57678,-5.96129 3.57678,-5.96129 l -8.34788,-2.55912 z" style="fill:#e20909;fill-opacity:1;fill-rule:evenodd;stroke:#313131;stroke-width:3;stroke-linecap:butt;stroke-linejoin:miter;stroke-miterlimit:4;stroke-opacity:1;stroke-dasharray:none;display:inline" id="path2020" inkscape:connector-curvature="0"/>
    <path d="m 332.61731,534.13993 c 3.50585,2.2487 5.00841,5.8997 -1.98709,15.4993 0,0 9.83613,-4.6696 13.11485,-8.7431 3.2787,-4.0736 0,-7.551 0,-7.551 l -11.12776,0.7948 z" style="fill:#e20909;fill-opacity:1;fill-rule:evenodd;stroke:#313131;stroke-width:3;stroke-linecap:butt;stroke-linejoin:miter;stroke-miterlimit:4;stroke-opacity:1;stroke-dasharray:none;display:inline" id="path2022" inkscape:connector-curvature="0"/>
    <path d="m 308.77214,528.97343 c -0.44268,10.3104 -10.1657,9.8204 -21.06323,14.3071 0,0 14.80388,3.9743 21.85808,-0.3974 7.05419,-4.3716 10.3329,-8.3458 10.3329,-8.3458 l -11.12775,-5.5639 z" style="fill:#e20909;fill-opacity:1;fill-rule:evenodd;stroke:#313131;stroke-width:3;stroke-linecap:butt;stroke-linejoin:miter;stroke-miterlimit:4;stroke-opacity:1;stroke-dasharray:none;display:inline" id="path2024" inkscape:connector-curvature="0"/>
    <path d="m 304.79794,523.80703 c -9.74719,-10.9886 -22.51321,-0.8455 -34.17809,1.5897 0,0 11.42582,-11.9226 20.66582,-14.7046 9.24001,-2.782 16.2942,3.5769 16.2942,3.5769 l -2.78193,9.538 z" style="fill:#e20909;fill-opacity:1;fill-rule:evenodd;stroke:#313131;stroke-width:3;stroke-linecap:butt;stroke-linejoin:miter;stroke-miterlimit:4;stroke-opacity:1;stroke-dasharray:none;display:inline" id="path2026" inkscape:connector-curvature="0"/>
    <path d="m 311.55408,500.35933 c -3.93518,-17.3749 -19.70647,-15.023 -32.5884,-17.4866 0,0 19.07613,-6.2593 29.01162,-6.3587 9.93548,-0.0993 10.73033,5.9613 10.73033,5.9613 l -7.15355,17.884 z" style="fill:#e20909;fill-opacity:1;fill-rule:evenodd;stroke:#313131;stroke-width:3;stroke-linecap:butt;stroke-linejoin:miter;stroke-miterlimit:4;stroke-opacity:1;stroke-dasharray:none;display:inline" id="path2028" inkscape:connector-curvature="0"/>
    <path d="m 316.63628,114.60032 c -19.93803,2.84427 -38.98844,9.39208 -60.6999,7.8685 -29.46043,-2.06735 -20.88474,-16.15619 -16.86109,-20.79533 3.83439,-4.42095 18.95631,10.36171 32.03607,15.17497 15.17589,5.58461 30.35177,-1.49237 45.52492,-2.24814 z" style="fill:#e20909;fill-opacity:1;fill-rule:evenodd;stroke:#313131;stroke-width:3.00000023999999990;stroke-linecap:butt;stroke-linejoin:miter;stroke-miterlimit:4;stroke-opacity:1;stroke-dasharray:none;display:inline" id="path2032" inkscape:connector-curvature="0"/>
    <g id="g5704">
      <path id="path2002" style="fill:#000000;fill-opacity:1;fill-rule:evenodd;stroke:#313131;stroke-width:3.00000024;stroke-linecap:butt;stroke-linejoin:miter;stroke-miterlimit:4;stroke-opacity:1;stroke-dasharray:none;display:inline" d="m 213.22163,199.28538 -9.83564,-4.84756 c 3.56684,-3.79916 -0.50468,-6.83447 -4.21526,-9.90589 -2.20274,-3.64989 -6.23555,-3.68535 -10.67869,-2.10763 -0.64042,-6.97151 -5.69777,-8.2641 -11.52174,-8.57105 -1.29757,-10.63316 -6.61038,-10.02362 -11.52173,-10.53818 -1.97922,-5.43003 -5.56286,-6.4551 -8.85208,-5.62037 -1.08315,-1.96269 -4.04152,-2.51896 -11.10022,0 0,0 -4.49628,7.728 -9.5546,5.62037 -5.05832,-2.10764 -9.97615,-8.14952 -11.80277,-12.36479 -1.82662,-4.21528 6.88494,-3.37222 6.74444,-8.43055 -0.14051,-5.05832 -3.51274,-8.71156 -7.30648,-11.80276 -3.79373,-3.0912 -9.2736,0.28102 -8.29003,-7.02545 0.98357,-7.30647 1.44021,-13.98064 6.32291,-17.84463 4.88268,-3.86401 13.20785,2.38864 13.20785,2.38864 0,0 5.44472,-0.98355 4.44359,-4.18014 -1.00113,-3.19658 -8.4481,-8.60618 -5.56766,-12.39992 5.76086,-7.5875 10.11664,-11.17048 17.1421,-11.24073 7.02545,-0.07026 4.42604,10.88945 8.85207,11.80276 4.42603,0.91331 5.23396,-10.04641 12.22429,-7.30648 6.99032,2.73993 16.10116,8.21752 13.76987,15.73702 -1.98067,6.38865 -4.32512,4.16906 -3.55508,6.44758 1.07586,3.18349 -1.91824,0.36985 9.45646,10.83503 4.8329,4.44644 11.4998,10.77089 19.12845,16.75955 7.62865,5.98864 16.38302,14.19415 23.91562,20.22506 7.5326,6.03092 14.68649,8.48213 19.67621,12.51684 4.98972,4.03469 8.09628,6.56165 8.09628,6.56165 l -49.17816,25.29163 z" inkscape:connector-curvature="0"/>
      <path id="path2012" style="fill:#000000;fill-opacity:1;fill-rule:evenodd;stroke:#313131;stroke-width:3.00000024;stroke-linecap:butt;stroke-linejoin:miter;stroke-miterlimit:4;stroke-opacity:1;stroke-dasharray:none;display:inline" d="m 269.57938,324.03611 c -5.84777,0.001 -11.48283,0.34127 -16.46211,1.15798 -26.5562,4.35579 -34.83334,22.4711 -34.83334,22.4711 0,0 18.11528,26.55244 8.98218,38.77672 -9.13308,12.22428 -34.1572,18.4941 -43.8468,10.10886 l -7.29215,-6.32195 c -3.56468,-3.08482 -2.10994,-7.84889 -7.73031,-5.03879 -5.62037,2.8102 -10.81441,10.72459 -11.95537,13.61411 -3.173,8.0359 7.88679,8.45013 7.88679,8.45013 l -3.38006,2.78546 c -0.31957,0.7189 -3.88302,-5.11664 -7.29215,-2.78546 -5.41538,3.70306 -7.30747,13.20566 -7.16696,19.24756 0.14051,6.0419 7.7303,4.9136 7.7303,4.9136 l 1.69003,6.1654 c 0,0 -4.94358,0.9953 -4.38155,5.0701 0.56206,4.0748 6.9276,8.2804 9.98368,9.2639 3.05606,0.9835 4.63193,-4.7572 4.63193,-4.7572 l 12.23704,-2.2533 c 0,0 -3.1026,3.916 1.81522,5.6021 4.9178,1.6861 8.74608,2.6882 13.20724,1.2832 4.46116,-1.4051 1.28317,-7.8868 1.28317,-7.8868 32.50535,-9.5805 67.57871,-15.4014 109.03801,-11.9241 -12.44836,-15.8109 -15.60983,-34.98049 -14.61559,-55.64569 16.25149,-3.17557 25.6703,0.46866 34.26998,4.9449 4.14687,-4.59264 10.6938,-11.94687 8.04328,-17.02546 -5.1348,-9.83871 -13.33684,-22.1098 -17.4949,-35.96002 -10.88422,-1.82311 -28.43213,-4.26 -44.34756,-4.25635 z" inkscape:connector-curvature="0"/>
      <path id="path2030" style="fill:#000000;fill-opacity:1;fill-rule:evenodd;stroke:#313131;stroke-width:3.00000024;stroke-linecap:butt;stroke-linejoin:miter;stroke-miterlimit:4;stroke-opacity:1;stroke-dasharray:none;display:inline" d="m 248.76179,196.73071 c 0,0 -41.53034,17.28775 -69.15101,23.05033 -27.62066,5.76259 -42.92131,-1.98709 -42.92131,-1.98709 0,0 1.39096,-8.54453 -5.56388,-7.55097 -6.95484,0.99354 -11.72388,5.76259 -14.3071,10.73033 -1.29163,2.48387 3.08,3.97418 4.19774,6.43322 1.11774,2.45903 -1.81323,5.09194 -1.81323,5.09194 0,0 -6.35871,-8.1471 -9.53807,-3.17935 -3.17936,4.96774 -6.55743,11.12774 -4.37162,17.88387 1.0929,3.37807 5.16646,-0.29806 8.17195,1.14259 3.00547,1.44064 2.55839,6.8058 2.55839,6.8058 0,0 -7.55098,-2.68258 -6.35872,2.78194 1.19226,5.46453 0.79484,11.12775 5.16645,14.70453 4.37162,3.57678 6.35872,-4.37162 6.35872,-4.37162 l 6.75614,5.56388 c 0,0 -4.57033,3.97419 -0.79484,7.15354 3.77549,3.17936 8.1471,5.56388 11.92258,5.56388 3.77549,0 2.78193,-7.55098 2.78193,-7.55098 3.18419,-3.83206 7.02343,-6.35401 12.32001,-5.96128 8.31124,3.09699 7.72702,8.86263 5.56388,15.10194 10.60399,0.27723 18.37101,-5.1195 27.02452,-8.74323 6.53396,0.99407 8.29999,3.77611 6.35872,7.94839 14.48092,4.62391 26.47926,-1.92383 38.94712,-6.35872 2.66928,2.17393 3.6084,5.38592 0.99354,10.73032 14.30711,-21.1957 28.61422,-29.40903 42.92132,-24.64 11.37603,16.94035 22.63325,27.67966 35.56906,39.94067 -2.2129,22.60948 12.23453,42.59636 19.87098,57.22845 3.68657,7.06376 -10.4859,18.62214 -11.12775,20.86449 -4.34601,15.1828 -1.20162,39.30215 -0.13638,38.94715 3.3787,-6.8459 8.87444,-9.4575 15.23832,-10.333 -0.60302,4.913 -4.06448,7.682 0.79483,16.6917 6.49622,6.6773 13.47025,12.1601 21.46066,15.102 -9.36076,11.923 -15.4896,26.0089 -23.84517,38.947 -2.18655,3.3859 -4.37161,1.7885 -7.9484,0 -3.57677,-1.7884 -3.40629,-7.5909 -6.3587,-7.1535 -7.15506,1.0599 -16.59279,18.9961 -13.0384,25.7641 2.62807,5.0041 5.19435,-0.3916 6.86427,1.9106 1.66991,2.3022 2.04737,5.4737 -0.18459,7.2982 -2.23195,1.8245 -5.56388,-5.5439 -8.74323,-1.9672 -3.17935,3.5769 -2.7196,9.3956 -1.72605,13.4642 0.99356,4.0685 4.7167,1.5456 4.7167,1.5456 l 1.59015,2.4597 c -1.47928,0.9483 -2.4393,0.5322 -1.81883,3.0339 0.94142,3.7957 9.17867,10.2107 12.60858,5.4495 1.32062,-1.8332 1.72535,-2.8952 1.7784,-2.886 l 6.95598,-1.331 c 1.62884,-0.3116 -0.34277,5.3119 0.71968,5.5822 4.76767,1.2125 15.95721,1.0607 18.93563,-1.5016 4.0733,-3.5041 -1.87942,-8.663 4.87373,-7.9043 0,0 1.75,1.2535 3.1415,0.353 25.22977,-16.3289 42.65658,-42.1309 44.40007,-48.0916 1.77152,-6.0564 -0.99354,-5.5639 2.18581,-8.147 3.17935,-2.5833 10.53161,-2.1859 10.53161,-2.1859 0,0 13.60947,-6.0994 1.58968,-14.3071 -9.70047,-6.6239 -19.11158,-38.1973 -15.89678,-42.1265 -0.75144,-10.75025 -7.05749,-20.49051 -13.51226,-30.20383 -1.86918,-9.6361 1.11796,-16.03467 5.56387,-21.46068 2.54241,-0.91527 39.18893,44.16964 51.66454,59.61291 15.86583,19.6401 37.35745,-11.9225 37.35745,-11.9225 0,0 14.3071,-19.47362 13.31355,-44.31236 -0.99355,-24.83868 -17.28776,-55.04257 -17.28776,-55.04257 -3.55764,-15.92916 6.47317,-27.97591 17.48647,-39.74196 -10.51257,4.91232 -21.46235,5.01543 -30.99872,20.66582 0,0 -2.58324,-11.12775 -0.39743,-23.05033 2.18581,-11.92258 14.30711,-19.87098 14.30711,-19.87098 -14.23228,7.12187 -26.18141,14.62426 -27.81937,23.84518 -4.43109,-26.85923 8.1621,-50.47574 25.83227,-73.1252 -18.40068,11.85357 -34.63408,25.44098 -42.5239,45.70324 -10.06381,-47.99351 27.46166,-70.72613 68.75359,-107.7007 30.99081,-27.75051 6.35871,-52.45938 6.35871,-52.45938 -23.67662,-6.90592 -43.30541,1.05048 -59.61293,9.93549 0,0 -15.62007,-16.29332 -25.03744,-0.79483 -10.92177,17.97433 -19.65671,27.08714 -14.70452,47.69033 -2.55397,-3.4053 22.02538,-20.50898 40.93422,-20.6658 15.2225,-0.12625 4.37161,-18.2813 4.37161,-18.2813 0,0 38.5497,-16.49292 46.10067,-9.14065 7.55099,7.35226 10.23819,16.44689 -9.14065,34.57548 l -49.28002,46.10068 c -23.76716,22.23379 -30.13622,45.86188 -16.69163,83.85553 14.32435,40.47984 56.90491,72.08641 56.23487,98.95748 -0.67002,26.87107 1.95033,28.51243 -5.76257,40.5368 -7.7129,12.02433 -13.74013,24.44183 -28.2168,6.5574 -14.47666,-17.88444 -33.65139,-47.70511 -49.08132,-69.54842 -25.00751,-35.4017 -36.01614,-47.24324 -45.90195,-75.70842 -9.88582,-28.46517 2.38451,-23.44776 1.98709,-40.13938 -0.39742,-16.69162 -3.57678,-26.62711 -3.57678,-26.62711 l -100.94456,4.76904 z" inkscape:connector-curvature="0"/>
      <g id="g5700">
        <path d="m 307.08168,107.6735 c -4.78857,-5.08994 -14.19553,-5.34813 -23.74604,-4.07477 -1.60023,-2.18286 -8.60142,-6.27055 -26.55621,-5.47986 -6.47109,-8.20659 -7.55758,-21.15967 0.28102,-26.13468 7.17126,-4.55148 20.20648,-2.44611 21.63839,-3.37222 8.389,-5.42569 4.6368,-12.64582 23.04349,-15.73701 18.40668,-3.0912 50.58325,3.37221 50.58325,3.37221 0,0 10.53818,-5.05832 17.14211,-5.62036 6.60391,-0.56203 6.04188,-0.56203 9.27359,3.37222 3.23171,3.93425 6.53367,5.69062 3.65324,12.3648 -2.88043,6.67418 -15.17498,14.33191 -15.17498,14.33191 0,0 -5.76087,17.07186 0,28.94487 5.76087,11.87301 25.85366,20.2333 25.85366,20.2333 -9.09088,0.4791 -16.10191,2.14669 -19.95228,5.62037 -2.15448,1.6861 -4.01745,4.9341 -3.0912,7.58748 2.18838,6.26894 14.0509,16.86108 14.0509,16.86108 0,0 -4.84757,-2.24814 -7.30647,3.65324 -2.45891,5.90138 -2.52916,19.95228 -2.52916,19.95228 0,0 -15.59706,0.20043 -19.39025,10.67869 -5.25216,14.50848 7.45372,36.40228 10.11665,32.5981 0,0 -8.29004,3.16146 -14.61293,0.84305 -6.32291,-2.31839 -12.08378,-10.11665 -12.08378,-10.11665 -6.07068,1.10105 -11.14827,4.06442 -13.48887,8.14952 -39.75948,-13.06276 -50.15161,3.24183 -59.85685,20.2333 -3.01372,3.05074 -6.7284,4.34906 -11.24073,3.65325 6.01051,-7.60705 6.93627,-16.48527 7.02545,-25.57265 -16.70537,1.05517 -32.19314,15.15893 -53.95546,12.08378 11.26533,-7.59638 17.18279,-17.33191 13.48886,-30.912 -9.25705,-5.67768 -22.53871,-6.52585 -35.40827,-7.8685 39.44079,-8.39371 64.13768,-18.39788 69.9735,-33.72217 l 25.85366,-2.24814 c 9.31177,-5.57274 9.56757,-10.3222 10.9597,-15.17498 -6.31983,-6.7027 -16.7202,-1.11688 -25.57263,-3.65323 -3.73176,-1.0692 -3.98328,-5.89974 -2.21103,-7.22179 0.88613,-0.66102 1.86125,-3.06562 3.38247,-3.38634 1.52122,-0.32071 3.58853,1.44248 5.53499,1.24853 7.25332,-0.72272 30.28073,-1.15808 37.69442,-2.44317 4.53671,-8.30764 2.63096,-16.66247 -3.37221,-23.04346 z" style="fill:#000000;fill-opacity:1;fill-rule:evenodd;stroke:#313131;stroke-width:3.00000024;stroke-linecap:butt;stroke-linejoin:miter;stroke-miterlimit:4;stroke-opacity:1;stroke-dasharray:none;display:inline" id="path2034" inkscape:connector-curvature="0"/>
        <path d="m 321.88495,70.74864 c 0.003,2.28791 -3.91115,4.1435 -8.7412,4.1435 -4.83004,0 -8.74463,-1.85559 -8.7412,-4.1435 -0.003,-2.28792 3.91116,-4.1435 8.7412,-4.1435 4.83005,0 8.74463,1.85558 8.7412,4.1435 z" style="fill:#fcef3c;fill-opacity:1;fill-rule:evenodd;stroke:#313131;stroke-width:3;stroke-linecap:butt;stroke-linejoin:miter;stroke-miterlimit:4;stroke-opacity:1;stroke-dasharray:none;display:inline" id="path2036" inkscape:connector-curvature="0"/>
      </g>
      <path id="path3914" style="fill:#000000;fill-opacity:1;fill-rule:evenodd;stroke:#313131;stroke-width:3.00000024;stroke-linecap:butt;stroke-linejoin:miter;stroke-miterlimit:4;stroke-opacity:1;stroke-dasharray:none" d="m 301.84637,329.38785 c -3.34047,-0.0589 -5.74363,1.49884 -8.51273,2.40986 10.12705,8.03153 20.2152,16.07203 20.37422,26.63357 -7.9163,16.53424 0.19591,20.04487 10.89128,21.46959 4.0776,-4.59805 9.22321,-11.04883 6.8227,-15.64839 -3.69254,-7.07521 -8.95205,-15.42281 -13.17595,-24.69317 -1.79867,-1.89682 -3.84627,-3.88734 -6.25936,-6.04028 -4.37389,-3.06013 -7.54201,-4.08536 -10.14016,-4.13118 z" inkscape:connector-curvature="0"/>
    </g>
  </g>
  <g inkscape:groupmode="layer" id="layer2" inkscape:label="Reflet final" sodipodi:insensitive="true">
    <path sodipodi:nodetypes="cccccc" d="M 300.00001,658.5 C 300.00001,658.5 598.50001,546.17969 598.50001,260.72817 C 598.50001,-24.723334 598.50001,2.1764865 598.50001,2.1764865 L 1.5,2.1764865 L 1.5,260.72817 C 1.5,546.17969 300.00001,658.5 300.00001,658.5 z " style="opacity:1;fill:url(#radialGradient3163);fill-opacity:1;fill-rule:evenodd;stroke:none;stroke-width:1px;stroke-linecap:butt;stroke-linejoin:miter;stroke-opacity:1" id="path2875" inkscape:export-xdpi="144" inkscape:export-ydpi="144"/>
  </g>
  <g inkscape:groupmode="layer" id="layer1" inkscape:label="Contour final" sodipodi:insensitive="true">
    <path sodipodi:nodetypes="cccccc" d="M 299.99999,658.50028 C 299.99999,658.50028 1.5,546.17992 1.5,260.72828 C 1.5,-24.723336 1.5,2.1764957 1.5,2.1764957 L 598.49999,2.1764957 L 598.49999,260.72828 C 598.49999,546.17992 299.99999,658.50028 299.99999,658.50028 z " style="opacity:1;fill:none;fill-opacity:1;fill-rule:evenodd;stroke:#000000;stroke-width:3.00000048;stroke-linecap:butt;stroke-linejoin:miter;stroke-miterlimit:4;stroke-dasharray:none;stroke-opacity:1" id="path1411" inkscape:export-xdpi="144" inkscape:export-ydpi="144"/>
  </g>
</svg>